<?xml version="1.0" standalone="no"?>
<!DOCTYPE svg PUBLIC "-//W3C//DTD SVG 20010904//EN"
 "http://www.w3.org/TR/2001/REC-SVG-20010904/DTD/svg10.dtd">
<svg version="1.0" xmlns="http://www.w3.org/2000/svg"
 width="15.360000pt" height="15.360000pt" viewBox="0 0 15.360000 15.360000"
 preserveAspectRatio="xMidYMid meet">
<metadata>
Created by potrace 1.16, written by Peter Selinger 2001-2019
</metadata>
<g transform="translate(0.000000,15.360000) scale(0.001357,-0.001357)"
fill="#000000" stroke="none">
<path d="M5268 11311 c-56 -5 -81 -12 -90 -24 -10 -13 -33 -18 -93 -22 -153
-8 -193 -15 -252 -41 -17 -8 -42 -14 -56 -14 -39 0 -87 -12 -82 -20 2 -4 -12
-5 -32 -3 -20 2 -50 -3 -67 -11 -17 -8 -49 -17 -71 -20 -34 -5 -75 -14 -180
-42 -11 -3 -36 -7 -55 -8 -45 -4 -121 -25 -137 -37 -6 -6 -30 -12 -53 -15 -22
-3 -52 -9 -66 -15 -14 -5 -30 -6 -35 -3 -10 6 -105 -23 -127 -40 -7 -5 -11
-15 -8 -22 3 -7 -2 -27 -11 -44 -10 -20 -13 -45 -10 -67 8 -44 6 -43 53 -45
70 -2 105 2 99 12 -3 5 0 7 9 4 8 -3 24 0 36 6 23 12 100 29 164 35 37 4 38 3
20 -13 -36 -33 -73 -52 -89 -46 -8 4 -22 1 -30 -6 -8 -6 -40 -13 -72 -15 -89
-6 -116 -15 -145 -47 -30 -33 -35 -44 -16 -32 8 5 9 2 4 -12 -4 -10 -9 -27
-11 -37 -6 -29 -46 -88 -56 -82 -5 4 -6 0 -4 -7 6 -15 -39 -18 -52 -3 -5 4 -2
5 6 0 10 -6 12 -4 6 4 -4 7 -15 11 -25 8 -12 -3 -17 0 -14 8 3 7 -5 22 -17 34
-13 12 -19 21 -15 21 5 0 3 6 -3 14 -7 8 -13 34 -14 59 -2 25 -10 53 -18 64
-13 16 -13 17 4 4 22 -17 24 4 2 25 -8 9 -15 24 -15 35 0 10 -4 19 -10 19 -5
0 -7 -8 -4 -17 5 -15 4 -15 -7 1 -9 15 -8 24 6 48 29 51 7 53 -101 9 -312
-125 -626 -286 -912 -468 -57 -36 -99 -69 -95 -73 4 -4 48 -19 97 -34 146 -45
365 -144 462 -210 33 -22 30 -37 -12 -50 -18 -5 -86 13 -100 27 -4 4 -18 7
-30 7 -13 0 -26 4 -29 10 -3 5 -24 14 -45 20 -22 6 -40 15 -40 20 0 6 -7 10
-15 10 -8 0 -15 4 -15 8 0 4 -19 9 -42 9 -24 1 -53 11 -69 22 -16 12 -35 18
-43 15 -8 -3 -36 4 -62 15 -25 12 -55 21 -66 21 -10 0 -32 7 -48 15 -59 30
-86 16 -315 -164 -944 -744 -1626 -1767 -1954 -2931 -219 -778 -262 -1684
-120 -2505 109 -630 347 -1287 667 -1840 843 -1457 2281 -2466 3927 -2754 537
-94 1199 -108 1735 -36 728 97 1438 337 2071 701 964 553 1760 1398 2250 2386
71 144 79 166 79 218 0 37 4 60 13 63 7 3 12 23 11 56 0 28 3 51 7 51 8 0 1
78 -7 92 -3 4 0 8 5 8 7 0 7 7 -1 21 -10 17 -10 23 0 26 6 3 12 9 12 14 0 6
-4 8 -8 5 -5 -3 -7 33 -6 79 2 69 0 85 -12 85 -12 0 -13 4 -3 21 9 17 8 23 -2
30 -13 8 -6 13 13 10 4 0 3 11 -2 25 -12 30 -12 37 -2 31 4 -3 5 39 4 94 -3
70 0 99 8 99 7 0 5 11 -6 30 -16 26 -16 32 -4 55 12 23 12 28 0 36 -10 6 -11
11 -4 17 5 4 9 23 7 42 -4 38 -4 366 0 415 1 17 0 35 -2 40 -10 20 -9 35 2 28
6 -4 8 0 4 10 -4 10 -2 17 5 17 6 0 3 9 -6 19 -10 11 -15 25 -11 30 3 6 3 16
-1 23 -4 7 -8 22 -9 34 0 18 2 20 12 12 20 -17 15 6 -7 29 -12 13 -15 23 -8
25 6 2 12 25 13 50 1 29 -2 45 -9 42 -6 -2 -12 9 -13 26 -2 23 2 30 16 30 13
0 19 8 19 28 0 15 -5 30 -12 35 -8 5 -7 10 4 17 12 7 12 10 1 10 -8 0 -11 6
-7 16 3 9 3 21 -1 27 -4 7 -9 3 -14 -9 -4 -10 -8 130 -9 311 -1 182 -2 386 -2
455 -1 208 2 280 11 280 5 0 10 -66 10 -147 2 -185 3 -193 16 -193 5 0 3 -5
-5 -10 -10 -6 -11 -10 -3 -10 9 0 10 -7 3 -24 -5 -13 -7 -26 -5 -28 2 -2 7
-23 10 -47 3 -24 8 -48 12 -54 4 -7 8 -20 8 -29 1 -13 -2 -15 -11 -7 -8 7 -14
7 -19 -1 -3 -5 -4 -10 0 -10 3 0 1 -10 -6 -21 -10 -20 -9 -21 11 -16 20 5 21
4 6 -12 -22 -24 -21 -71 2 -71 14 0 14 2 3 9 -9 6 -11 15 -6 27 5 11 9 21 10
24 0 3 8 19 17 35 14 25 17 27 23 13 4 -10 16 -18 26 -18 12 0 16 -5 13 -14
-4 -11 0 -13 18 -9 23 5 23 5 3 -10 -13 -10 -24 -12 -32 -6 -7 7 -13 6 -18 -1
-3 -5 2 -10 12 -10 14 0 15 -2 5 -9 -11 -7 -10 -9 3 -14 11 -5 14 -3 9 5 -5 8
-2 9 11 5 9 -4 25 -2 33 5 13 11 15 10 9 -4 -5 -15 -2 -16 19 -8 33 13 54 13
34 0 -12 -7 -10 -9 7 -8 20 2 22 28 2 28 -5 0 -9 5 -9 11 0 8 4 8 15 -1 8 -6
19 -9 25 -5 6 4 10 3 9 -2 -4 -20 2 -24 18 -12 15 12 16 12 10 -3 -8 -22 6
-24 23 -3 16 19 5 34 -22 27 -14 -3 -19 -1 -14 6 5 8 1 10 -11 5 -15 -6 -16
-4 -6 9 7 8 9 18 5 22 -4 4 0 6 8 4 10 -2 15 4 14 19 -1 13 3 20 7 17 5 -3 7
-9 4 -14 -3 -5 3 -14 12 -20 16 -10 16 -11 1 -6 -12 3 -15 1 -11 -10 3 -8 8
-13 10 -10 6 6 43 -26 43 -37 0 -4 -4 -5 -10 -2 -5 3 -10 0 -10 -8 0 -8 -7
-18 -16 -21 -13 -5 -14 -9 -4 -21 16 -19 30 -19 30 0 0 28 24 65 42 65 25 0
23 13 -8 49 -14 17 -23 31 -20 31 3 0 23 -23 45 -50 22 -28 42 -46 46 -41 8
14 46 9 41 -6 -3 -7 -1 -15 4 -18 14 -8 11 249 -5 445 -68 836 -324 1661 -733
2365 -709 1220 -1819 2123 -3147 2558 -180 59 -267 66 -365 30 -31 -12 -47
-14 -127 -20 -93 -5 -110 7 -35 26 26 7 55 17 65 22 10 5 46 12 80 15 34 3 66
10 71 15 6 6 6 9 0 9 -5 0 -77 16 -159 35 -159 37 -478 95 -524 95 -28 0 -48
-15 -50 -35 -1 -5 -14 -10 -30 -10 -16 0 -27 5 -24 11 5 14 -31 11 -50 -4 -8
-7 -19 -12 -23 -11 -5 1 -12 0 -16 -1 -5 -1 -11 -3 -15 -5 -52 -14 -62 -18
-58 -25 3 -4 -6 -7 -20 -6 -14 0 -25 5 -25 9 0 4 -13 -2 -29 -14 -16 -12 -34
-18 -40 -15 -6 4 -11 3 -11 -3 0 -15 -40 -24 -55 -11 -11 9 -12 7 -7 -12 4
-19 3 -21 -9 -11 -11 9 -18 8 -33 -3 -16 -11 -17 -16 -6 -29 11 -13 11 -18 0
-28 -10 -9 -11 -9 -8 3 6 17 -28 70 -43 70 -6 0 -7 -4 -4 -10 3 -5 1 -10 -4
-10 -6 0 -11 5 -11 10 0 6 -8 10 -17 9 -11 0 -13 -3 -5 -6 6 -2 12 -9 12 -15
0 -6 -8 -4 -18 5 -10 10 -22 14 -25 10 -4 -3 -7 -1 -7 7 0 10 -3 10 -15 0 -13
-11 -64 -18 -162 -24 -13 0 -23 -5 -23 -9 0 -5 -6 -7 -12 -4 -7 2 -24 0 -37
-5 -34 -12 -81 -17 -81 -7 0 4 -16 3 -35 -2 -19 -5 -55 -12 -81 -14 -26 -2
-51 -8 -56 -13 -5 -5 -27 -6 -51 -1 -23 4 -45 5 -49 3 -5 -3 -8 -1 -8 4 0 14
26 33 33 25 4 -3 12 -1 19 5 14 11 93 31 263 67 20 4 112 20 170 30 65 11 92
17 135 31 25 7 79 18 120 24 41 6 89 15 105 20 17 5 57 12 90 16 l60 8 -40 8
c-51 11 -775 19 -877 9z m2362 -1410 c0 -15 30 -21 51 -11 14 8 19 8 17 -1 -2
-7 5 -15 16 -17 11 -2 16 0 12 7 -10 15 -6 14 40 -8 34 -17 79 -57 86 -79 2
-4 5 -6 8 -5 14 4 179 -177 199 -219 12 -26 30 -57 40 -70 29 -36 77 -148 91
-208 6 -30 20 -80 31 -110 10 -30 27 -100 38 -155 11 -55 29 -149 41 -210 12
-60 24 -130 26 -155 2 -25 9 -73 15 -106 6 -34 12 -90 14 -125 2 -35 9 -95 15
-134 14 -89 11 -186 -7 -203 -8 -8 -13 -9 -13 -2 0 6 -12 16 -27 23 -16 6 -30
14 -33 18 -16 19 -91 51 -109 46 -12 -3 -19 -2 -16 2 2 4 -27 6 -66 4 -39 -2
-79 2 -91 8 -15 8 -22 8 -28 -1 -6 -10 -15 -10 -38 -2 -17 6 -33 8 -36 4 -4
-3 -12 3 -20 13 -7 10 -18 15 -24 11 -8 -5 -10 -2 -6 8 6 17 -5 20 -61 16 -16
-1 -52 -4 -80 -5 -27 -2 -70 -5 -95 -7 -50 -4 -72 0 -65 12 3 4 -2 10 -10 14
-8 3 -15 0 -15 -6 0 -7 -5 -6 -15 2 -8 7 -12 17 -8 23 3 6 1 7 -5 3 -7 -4 -12
-2 -12 5 0 7 -3 10 -6 7 -3 -4 0 -16 6 -28 7 -12 7 -20 2 -16 -6 3 -15 19 -20
35 -8 23 -7 32 4 42 13 10 12 14 -3 31 -13 15 -14 18 -2 13 13 -5 15 4 14 57
-1 34 -7 64 -13 66 -5 1 -20 11 -32 22 l-21 18 30 35 c17 19 28 37 24 41 -3 3
-1 6 5 6 15 0 15 -13 0 -28 -20 -20 2 -14 29 8 27 21 42 20 27 -3 -5 -7 1 -2
13 12 16 19 19 27 10 33 -9 6 -8 8 2 8 10 0 12 8 7 30 -3 19 -2 29 4 25 6 -3
10 -2 10 3 0 13 -53 22 -66 11 -12 -10 -36 13 -48 45 -4 13 -2 17 8 13 11 -4
12 2 4 36 -11 50 -23 66 -23 32 0 -14 4 -25 9 -25 5 0 6 -3 3 -7 -4 -3 -16 2
-26 11 -19 17 -20 17 -42 -8 -21 -24 -47 -37 -35 -17 3 5 -8 18 -25 29 -17 10
-30 22 -30 26 3 23 0 30 -9 16 -5 -8 -10 -10 -10 -5 0 6 -5 3 -10 -5 -6 -9
-10 -10 -10 -3 0 6 5 15 10 18 14 9 12 45 -2 45 -9 0 -9 3 0 12 9 9 15 8 28
-8 15 -19 16 -19 9 1 -15 43 -18 58 -9 53 5 -4 10 5 10 19 2 17 -2 23 -12 19
-7 -3 -16 -1 -19 4 -4 6 -1 10 5 10 7 0 9 7 6 16 -3 8 -2 12 3 9 24 -14 18 17
-6 39 -16 15 -22 26 -14 26 9 0 11 8 7 24 -4 18 0 28 19 40 28 18 39 21 30 6
-8 -13 1 -13 26 0 23 13 27 55 3 46 -8 -3 -12 -2 -9 3 3 5 0 13 -6 16 -10 7
-40 -25 -34 -36 2 -3 -2 -6 -10 -6 -9 0 -6 11 11 33 20 26 24 40 20 68 -5 28
-2 36 13 41 11 3 25 13 33 22 12 15 11 15 -9 5 -28 -15 -40 -15 -25 0 7 7 12
23 12 36 0 19 4 22 20 17 23 -7 36 15 24 43 -4 9 -8 22 -8 27 -1 6 -7 11 -13
11 -24 3 -24 4 -9 20 31 30 9 80 -31 72 -20 -4 -21 -20 -2 -27 6 -2 9 1 5 7
-4 6 1 8 13 5 30 -8 15 -54 -17 -48 -9 2 -20 4 -24 4 -5 1 -4 38 1 59 2 7 -5
17 -10 15 -4 -1 -4 8 -1 20 6 25 42 67 42 49 0 -19 17 -14 44 13 14 14 32 25
41 25 10 0 13 5 9 12 -4 6 -3 8 4 5 9 -6 9 -15 3 -46 -1 -2 -9 2 -18 10 -17
12 -17 12 -1 -5 15 -17 18 -17 31 -4 10 10 12 19 5 31 -5 9 -6 17 -2 17 3 0 1
6 -5 14 -9 10 -7 17 6 27 14 12 16 12 11 -1 -3 -9 5 -23 21 -34 l26 -20 -20
24 c-15 17 -17 24 -7 27 10 4 10 8 0 21 -12 14 -10 14 11 3 32 -17 48 5 23 32
-9 10 -12 17 -7 15 6 -1 21 5 35 15 13 9 21 17 17 17 -4 0 -2 7 5 15 14 16 48
20 48 6z m595 -2101 c11 -5 16 -9 11 -9 -5 -1 3 -12 18 -26 14 -13 26 -28 26
-32 0 -4 16 -18 36 -31 20 -13 34 -19 31 -14 -4 5 0 9 8 9 8 0 17 -7 19 -14 3
-8 1 -11 -4 -8 -6 3 -10 1 -10 -4 0 -6 4 -11 9 -11 5 0 11 -10 15 -22 3 -13 5
-23 4 -23 -1 0 4 -9 10 -21 14 -26 16 -96 5 -199 -11 -113 -8 -213 11 -298 32
-150 41 -372 21 -567 -12 -116 -18 -146 -30 -170 -7 -14 -13 -46 -13 -72 0
-25 -5 -54 -11 -64 -13 -22 -40 -120 -51 -184 -4 -25 -15 -70 -23 -100 -9 -30
-24 -87 -35 -126 -11 -39 -27 -85 -36 -102 -9 -17 -16 -38 -16 -47 0 -8 -4
-23 -10 -33 -15 -27 -95 -220 -119 -288 -12 -34 -50 -119 -85 -190 -35 -71
-67 -140 -71 -154 -4 -14 -15 -41 -25 -60 -10 -19 -27 -55 -38 -80 -10 -25
-34 -74 -51 -110 -17 -36 -31 -68 -31 -73 0 -4 -11 -25 -24 -46 -14 -21 -22
-42 -19 -45 4 -3 1 -6 -6 -6 -6 0 -16 -11 -21 -25 -5 -14 -16 -25 -25 -25 -8
0 -15 -5 -15 -10 0 -6 -11 -8 -25 -4 -15 4 -25 2 -25 -5 0 -6 -5 -10 -11 -8
-6 1 -14 -4 -17 -12 -3 -9 0 -11 8 -6 9 5 11 3 6 -6 -3 -8 -9 -22 -12 -31 -7
-20 -24 -24 -24 -7 0 6 -6 9 -14 6 -21 -8 -50 54 -42 89 4 16 10 41 13 56 3
15 11 33 19 39 8 6 14 20 14 31 0 26 -19 60 -29 53 -15 -9 -20 34 -6 45 16 13
8 43 -9 33 -6 -3 -8 -3 -4 2 4 4 -1 23 -13 41 l-20 33 25 7 c30 7 41 35 26 64
-6 11 -7 20 -3 20 4 0 1 5 -7 11 -13 9 -12 10 3 5 10 -3 25 2 35 12 23 23 35
52 22 52 -6 0 -9 14 -8 30 1 16 6 30 11 30 16 0 37 29 37 51 0 13 15 52 34 88
18 36 31 72 29 79 -3 7 0 26 6 43 12 34 -2 75 -21 63 -6 -4 -8 -3 -4 4 3 5 2
12 -3 14 -6 1 -12 30 -14 63 -4 53 -6 60 -27 63 -12 2 -32 12 -43 23 -12 10
-24 19 -28 19 -4 0 -14 12 -24 26 -9 15 -12 23 -6 20 15 -10 14 7 -1 22 -16
16 -28 15 -28 -3 0 -8 -7 -15 -16 -15 -9 0 -12 5 -8 13 6 10 4 10 -7 0 -7 -7
-16 -13 -20 -13 -14 0 -19 33 -8 47 9 11 7 18 -9 36 -29 32 -62 94 -62 119 0
12 7 29 15 38 14 16 12 21 -20 60 -23 27 -35 51 -32 62 3 10 1 18 -4 18 -5 0
-9 5 -9 10 0 6 -9 20 -20 32 -11 12 -20 28 -20 35 0 8 -13 28 -30 46 -16 18
-30 39 -30 48 0 27 -27 44 -45 29 -8 -7 -15 -19 -15 -28 0 -14 -27 -41 -42
-42 -4 0 -5 7 -2 15 4 9 -6 22 -30 36 -20 11 -36 28 -36 36 0 11 -9 14 -35 11
-55 -6 -47 25 16 59 29 16 63 34 77 42 23 12 30 11 67 -9 29 -16 44 -32 51
-54 8 -27 14 -31 47 -34 24 -2 55 5 84 19 33 16 48 19 51 11 2 -7 7 -10 11 -7
8 4 64 -101 76 -142 3 -11 12 -27 20 -33 8 -7 15 -19 15 -28 0 -8 6 -23 13
-31 8 -9 22 -42 31 -73 10 -32 22 -58 27 -58 5 0 9 -5 9 -10 0 -6 11 -23 25
-38 14 -15 25 -32 25 -39 0 -7 5 -13 10 -13 6 0 10 -7 10 -15 0 -8 4 -15 9
-15 5 0 8 -11 6 -25 -1 -14 2 -28 7 -31 4 -3 5 -11 2 -17 -4 -7 -4 -9 1 -5 4
4 16 3 27 -3 29 -15 35 -2 9 19 -23 17 -23 18 -3 41 12 16 21 20 26 13 3 -6
-3 -17 -14 -25 -11 -7 -17 -17 -13 -20 9 -9 23 -9 22 1 -3 19 2 23 16 12 8 -7
15 -9 16 -4 0 5 3 21 5 37 4 21 1 27 -13 28 -11 0 -13 3 -5 6 7 3 20 -1 29 -9
14 -11 16 -11 11 4 -4 9 1 23 13 34 13 12 16 21 9 29 -10 12 -4 25 12 25 5 0
6 -5 2 -12 -4 -6 -3 -8 3 -5 10 6 9 18 -13 126 -3 12 1 29 7 37 10 12 8 13 -7
7 -17 -6 -18 -5 -4 12 8 10 10 16 4 12 -7 -4 -14 0 -17 8 -4 9 -1 12 9 8 9 -3
12 0 9 9 -4 9 4 20 19 27 21 12 23 17 14 37 -6 13 -15 24 -20 24 -4 0 -8 11
-8 25 0 14 -7 28 -15 31 -8 4 -15 15 -15 26 0 13 -4 17 -12 11 -7 -4 -5 5 5
20 10 16 13 27 6 27 -6 0 -9 6 -6 13 2 6 -3 21 -12 31 -15 18 -15 19 2 13 13
-5 17 -3 14 5 -2 7 -15 13 -29 13 -15 0 -30 4 -34 8 -5 4 0 5 11 1 18 -6 18
-5 -2 15 -27 25 -29 36 -8 27 8 -3 15 -1 15 3 0 5 -6 12 -12 14 -8 3 -6 6 4 6
10 1 17 4 17 9 -3 19 2 26 11 12 5 -8 12 -11 16 -7 4 4 -1 16 -11 27 -22 25
-47 27 -38 3 5 -13 2 -15 -12 -10 -15 6 -16 5 -5 -8 10 -12 9 -16 -5 -21 -9
-4 -20 -3 -24 2 -17 25 -91 47 -76 24 3 -5 1 -10 -5 -10 -7 0 -10 -7 -6 -15 3
-8 0 -15 -7 -15 -8 0 -8 -3 2 -9 9 -6 10 -11 2 -15 -14 -9 -16 7 -7 56 3 20 0
24 -23 23 -17 0 -29 7 -36 22 -5 12 -20 27 -34 33 -20 9 -22 9 -14 -2 6 -7 16
-36 23 -65 11 -48 10 -55 -9 -82 -12 -16 -21 -34 -21 -41 0 -6 -5 -8 -11 -4
-8 4 -9 -1 -4 -17 4 -15 3 -19 -3 -11 -5 7 -16 10 -24 7 -12 -5 -19 5 -29 37
l-14 43 -69 -3 c-38 -1 -74 -7 -81 -12 -6 -5 -24 -7 -39 -4 -22 4 -29 0 -33
-16 -4 -16 -8 -18 -19 -9 -12 10 -12 14 3 24 19 14 27 53 14 69 -12 16 -11 98
3 115 9 12 8 13 -3 6 -11 -6 -12 -5 -5 6 10 17 14 139 4 139 -3 0 -4 26 -2 58
3 40 -1 68 -11 88 -9 17 -15 37 -14 44 2 25 -15 90 -24 90 -4 0 -11 21 -15 47
-4 25 -17 71 -29 102 -12 31 -20 62 -19 69 1 7 0 8 -2 3 -11 -21 -30 1 -29 34
1 21 -4 36 -12 39 -10 4 -11 11 -3 25 5 11 8 30 6 43 -3 13 -5 38 -5 56 -1 23
-10 43 -31 64 -49 49 -52 130 -8 224 9 18 18 21 78 20 37 -1 66 2 64 6 -2 3 6
4 18 0 23 -5 58 -38 58 -54 0 -4 5 -8 11 -8 8 0 8 5 -1 15 -9 10 -9 15 -1 15
6 0 11 -4 11 -10 0 -5 7 -10 15 -10 12 0 11 -4 -5 -20 -11 -11 -25 -20 -31
-20 -6 0 -8 -9 -4 -20 4 -14 1 -22 -10 -26 -17 -7 -40 -51 -36 -71 1 -7 -3
-22 -9 -33 -13 -23 4 -100 21 -100 6 0 9 -7 5 -15 -16 -44 74 -211 151 -278
26 -23 49 -45 51 -49 2 -4 10 -4 19 -1 10 4 14 2 10 -4 -6 -10 23 -40 96 -98
39 -32 67 -46 77 -40 6 4 10 0 10 -8 0 -8 7 -18 16 -21 9 -3 12 -11 8 -18 -4
-7 -4 -10 1 -6 11 10 85 -32 85 -49 0 -7 5 -13 11 -13 8 0 10 -12 6 -34 -7
-45 5 -54 58 -46 24 4 42 3 39 -2 -3 -4 2 -11 11 -14 10 -4 14 -14 10 -28 -5
-19 -5 -19 5 -3 11 17 13 17 36 2 14 -9 31 -14 37 -11 7 2 4 5 -5 5 -23 1 -22
7 0 31 10 10 27 18 39 17 12 0 20 -3 18 -6 -7 -7 28 -30 46 -31 22 0 31 24 16
40 -9 10 -9 11 0 6 6 -3 15 -1 19 5 4 7 3 9 -3 6 -15 -9 -36 20 -29 38 3 9 2
13 -4 10 -6 -3 -10 -2 -10 3 0 6 -8 8 -17 6 -10 -3 -27 2 -38 9 -17 13 -22 13
-42 0 -23 -15 -30 -9 -23 22 1 6 -2 7 -6 3 -10 -11 -35 12 -27 25 3 6 1 7 -5
3 -7 -4 -12 -2 -12 4 0 6 -4 9 -9 6 -5 -3 -8 -14 -6 -24 1 -9 0 -11 -2 -3 -4
12 -6 12 -14 0 -6 -11 -11 -11 -20 -2 -10 10 -9 14 4 19 9 3 17 10 17 15 0 6
-10 4 -22 -2 -22 -12 -22 -11 -8 6 8 10 10 16 4 12 -6 -3 -20 1 -30 9 -19 15
-19 15 1 10 13 -4 5 7 -20 29 -22 19 -40 39 -40 44 0 5 -3 12 -7 16 -4 4 -4
14 -1 23 5 11 3 13 -7 7 -10 -6 -11 -2 -5 21 4 16 9 36 10 44 2 8 4 15 5 15 1
0 3 8 5 19 2 10 9 24 16 30 9 8 10 8 5 -2 -4 -6 10 -2 31 10 41 25 165 50 251
51 39 0 61 -6 82 -21 16 -12 47 -26 68 -31 37 -8 42 -6 65 22 27 33 42 100 33
145 -3 15 -8 54 -11 87 -4 33 -13 67 -21 76 -8 8 -14 29 -14 46 0 17 -7 36
-15 43 -8 7 -13 16 -10 19 2 4 -2 8 -9 8 -8 0 -12 -9 -9 -21 3 -18 2 -17 -7 2
-5 13 -18 31 -28 40 -9 10 -13 14 -8 10 15 -12 23 -10 23 7 0 8 -3 12 -7 10
-4 -2 -16 6 -28 19 l-20 24 26 21 c25 20 58 29 48 13 -9 -16 10 -31 32 -25
l22 5 -22 20 c-19 16 -20 21 -8 28 18 11 28 11 55 0z m-352 -309 c52 -34 90
-107 77 -150 -11 -39 -48 -71 -75 -66 -11 2 -47 6 -79 10 -33 3 -62 7 -64 10
-9 8 20 35 31 28 6 -4 8 4 5 21 -3 14 -1 29 4 32 5 4 1 16 -9 28 -20 23 -43
62 -43 72 0 4 14 4 30 1 20 -4 31 -2 32 6 0 6 2 17 3 22 2 6 3 13 4 17 2 11
44 -4 84 -31z m-7527 -1338 c26 -24 109 -73 125 -73 20 0 231 -128 249 -151 3
-4 50 -35 105 -69 55 -34 130 -83 166 -109 129 -90 214 -147 241 -160 28 -15
72 -87 57 -96 -4 -3 -1 -22 7 -41 8 -20 13 -43 10 -51 -3 -8 -1 -11 4 -8 6 3
10 1 10 -5 0 -6 -7 -13 -15 -16 -8 -4 -13 -10 -10 -15 3 -4 12 -6 20 -2 10 3
15 -1 15 -13 0 -11 -4 -15 -8 -9 -4 6 -16 12 -27 13 -11 2 -26 9 -33 15 -11 8
-12 5 -7 -19 5 -22 4 -25 -4 -14 -6 8 -11 11 -11 6 0 -4 -11 -1 -25 8 -28 18
-33 15 -11 -7 13 -12 11 -14 -14 -13 -16 1 -28 6 -27 11 1 6 -4 9 -12 7 -8 -2
-11 3 -8 13 4 8 2 15 -3 15 -6 0 -10 -7 -10 -17 0 -9 -3 -13 -7 -10 -3 4 -12
2 -18 -3 -9 -8 -14 -5 -18 9 -3 13 0 18 7 15 7 -3 13 2 13 10 0 10 -9 13 -30
10 -17 -2 -36 1 -43 7 -7 6 -21 9 -31 7 -10 -2 -17 2 -16 10 2 6 -4 12 -12 12
-8 0 -15 9 -15 20 0 11 -4 20 -10 20 -5 0 -7 -6 -4 -14 3 -8 1 -17 -5 -21 -6
-3 -11 -2 -11 4 0 13 -33 7 -38 -7 -6 -19 -23 -14 -21 6 3 31 -1 41 -13 38 -7
-1 -10 -1 -5 1 4 3 5 9 2 14 -4 5 2 6 12 2 16 -6 16 -4 -2 17 -11 13 -14 20
-7 16 6 -4 12 -2 12 4 0 6 -12 9 -27 8 -20 -2 -27 1 -25 11 3 12 0 12 -12 1
-19 -15 -19 -14 -7 28 8 26 7 32 -5 32 -8 0 -14 6 -13 13 3 25 -2 36 -18 41
-10 3 -31 22 -47 43 -16 20 -25 33 -19 30 6 -4 8 3 5 19 -5 28 -36 49 -59 40
-10 -4 -13 -2 -10 7 6 17 -24 45 -41 39 -7 -2 -10 2 -6 11 3 8 1 18 -5 22 -6
3 -11 15 -11 26 0 10 -6 19 -13 19 -12 0 -28 30 -52 95 -5 13 -9 15 -12 8 -7
-20 -27 -15 -54 13 -13 14 -31 23 -40 21 -10 -3 -22 5 -30 19 -7 13 -17 25
-23 25 -6 1 -15 2 -21 4 -5 1 -20 3 -33 3 -13 1 -20 6 -17 12 8 13 -33 56 -60
63 -11 2 7 5 41 6 53 1 65 -2 90 -26z m6892 -370 c17 -3 32 -10 32 -15 0 -15
44 -27 52 -14 5 8 8 7 8 -2 0 -8 5 -12 12 -10 6 2 20 -4 30 -14 22 -22 24 -35
2 -17 -9 7 -26 14 -37 15 -12 2 -16 0 -9 -2 6 -3 12 -12 12 -20 0 -8 6 -11 17
-7 11 4 14 3 9 -5 -4 -7 -1 -12 7 -12 7 0 14 -6 14 -14 0 -11 -6 -12 -23 -6
-16 7 -26 4 -39 -10 -16 -18 -16 -18 5 -13 19 5 21 3 15 -17 -5 -15 -4 -20 4
-16 18 11 13 -2 -9 -22 -26 -24 -83 -26 -124 -5 -17 9 -41 18 -54 19 -30 4
-72 44 -72 70 0 26 26 82 54 112 14 16 27 21 41 17 11 -3 35 -8 53 -12z
m-5226 -409 c52 -26 208 -115 261 -148 62 -39 91 -91 82 -149 -14 -98 -39
-203 -49 -213 -6 -6 -42 -19 -81 -29 -64 -17 -181 -52 -230 -70 l-20 -8 20 17
c17 15 17 17 3 12 -10 -3 -18 -1 -18 4 0 16 -45 6 -61 -14 -16 -19 -16 -18
-13 27 3 45 2 48 -17 42 -26 -8 -53 13 -39 30 7 9 6 16 -5 25 -8 7 -12 17 -8
24 4 6 8 18 10 26 1 12 -1 12 -11 -2 -11 -15 -13 -15 -24 2 -9 14 -9 21 0 26
6 4 8 3 4 -4 -3 -6 -2 -13 4 -17 9 -6 15 9 10 30 -1 5 8 1 19 -10 13 -11 25
-15 30 -9 13 14 24 67 12 60 -5 -3 -7 3 -4 14 7 28 23 25 23 -5 0 -28 3 -29
30 -15 14 7 24 5 42 -9 23 -20 23 -20 3 -35 -11 -8 -15 -15 -10 -15 15 0 45
25 45 37 0 6 7 15 16 20 9 5 14 14 10 21 -5 7 -14 6 -32 -6 -19 -12 -28 -13
-37 -4 -8 8 -8 11 1 12 26 3 31 4 38 12 4 4 1 7 -6 7 -7 0 -11 2 -8 5 3 3 17
1 32 -4 18 -8 26 -7 26 0 0 7 11 9 25 7 13 -3 22 -1 19 3 -3 5 -14 9 -25 9
-10 0 -19 6 -19 13 0 7 -7 3 -15 -7 -11 -15 -18 -17 -27 -8 -8 8 -8 15 1 25 9
12 8 16 -5 21 -12 5 -15 2 -10 -10 5 -12 1 -14 -17 -8 -32 10 -71 51 -55 58 7
3 1 3 -13 0 -15 -3 -30 -1 -33 5 -4 6 0 11 8 11 20 0 21 17 2 36 -17 17 -30
19 -20 2 4 -7 3 -8 -5 -4 -6 4 -9 11 -6 16 3 5 -8 16 -24 24 -22 12 -30 13
-34 3 -4 -9 -7 -9 -17 0 -11 10 -10 14 3 19 9 3 14 10 11 16 -3 5 -14 2 -24
-7 -13 -11 -20 -13 -25 -5 -4 7 1 14 14 17 23 6 65 69 57 88 -7 19 145 10 186
-11z m5088 2 c15 -3 22 -26 8 -26 -5 0 -15 0 -24 0 -8 0 -12 5 -9 10 3 6 1 10
-5 10 -7 0 -9 -7 -6 -16 3 -9 6 -20 6 -25 0 -15 53 2 71 23 21 23 32 23 25 0
-5 -15 1 -21 29 -29 19 -6 43 -9 52 -7 22 5 75 -40 95 -81 8 -16 15 -44 16
-62 1 -18 6 -43 12 -57 6 -17 5 -26 -2 -28 -6 -2 -11 -25 -12 -52 -1 -26 -7
-51 -12 -54 -6 -4 -10 -25 -9 -46 2 -43 -22 -74 -74 -99 -21 -10 -26 -20 -27
-52 -1 -22 3 -43 9 -46 12 -8 2 -39 -13 -39 -5 0 -10 5 -10 11 0 5 5 7 12 3 7
-4 8 -3 4 4 -10 17 -36 2 -36 -20 0 -12 -6 -26 -14 -32 -8 -6 -16 -20 -18 -31
-4 -27 -17 -35 -57 -35 -30 0 -33 -2 -29 -25 4 -19 1 -25 -11 -25 -28 0 -42
20 -30 42 10 18 8 19 -13 13 -12 -4 -31 -14 -40 -23 -10 -8 -18 -10 -18 -5 0
6 7 14 16 17 13 5 14 9 4 21 -6 7 -18 11 -27 8 -11 -4 -11 -8 -3 -13 8 -5 9
-10 2 -14 -6 -3 -13 -2 -17 4 -3 5 -13 10 -21 10 -8 0 -13 -3 -10 -8 2 -4 -6
-12 -18 -18 -20 -9 -22 -8 -18 13 3 18 0 23 -16 23 -17 0 -19 5 -16 30 4 20 1
30 -8 30 -21 1 -50 48 -43 70 4 11 10 18 15 15 8 -5 21 22 29 62 0 3 9 -1 19
-10 14 -13 20 -13 35 -3 9 7 17 23 17 34 0 11 5 24 10 27 6 3 10 13 10 22 0 9
6 21 14 27 17 14 32 71 15 61 -8 -6 -10 5 -6 36 3 24 6 59 6 77 1 21 6 32 16
32 22 0 18 31 -5 37 -15 4 -19 12 -16 29 3 13 1 24 -4 24 -16 0 -3 31 23 56
16 14 27 35 27 50 0 19 4 25 15 20 10 -3 17 3 21 20 5 20 11 24 28 19 11 -3
28 -7 36 -9z m-50 -1762 c0 -4 -20 -61 -44 -128 -58 -156 -115 -360 -116 -417
-2 -57 -20 -139 -30 -139 -4 0 -7 -18 -6 -39 1 -22 -1 -38 -5 -35 -7 4 -23
-48 -19 -61 1 -3 -6 -17 -14 -31 -9 -13 -12 -24 -6 -24 14 0 7 -30 -14 -63
-10 -15 -16 -36 -13 -47 3 -11 0 -18 -6 -17 -6 1 -12 -9 -14 -23 -5 -57 -12
-81 -32 -106 -12 -15 -21 -37 -21 -50 0 -14 -9 -28 -22 -35 -30 -16 -40 -32
-25 -41 8 -5 6 -9 -6 -14 -9 -3 -17 -15 -17 -25 0 -11 -7 -22 -15 -26 -9 -3
-23 -20 -32 -37 l-16 -31 22 19 c11 11 21 14 21 8 0 -6 -14 -21 -31 -33 -26
-18 -30 -26 -25 -51 4 -22 0 -38 -19 -63 -29 -37 -40 -95 -22 -108 8 -6 5 -7
-7 -3 -13 5 -17 2 -12 -9 3 -8 1 -15 -4 -15 -6 0 -10 5 -10 12 0 8 -6 6 -17
-5 -13 -13 -15 -20 -5 -29 19 -19 14 -30 -9 -18 -11 7 -23 9 -27 6 -3 -3 0 -6
7 -6 8 0 7 -7 -4 -24 -9 -13 -15 -28 -13 -32 4 -14 -22 -55 -32 -49 -4 3 -6
-5 -4 -17 2 -13 2 -17 -2 -10 -9 19 -38 14 -52 -9 -8 -12 -9 -18 -3 -15 5 4
13 2 16 -4 4 -6 1 -9 -7 -8 -8 2 -12 -4 -10 -14 2 -10 -2 -18 -8 -18 -6 0 -9
4 -5 9 3 5 -9 9 -27 9 -18 -1 -27 -3 -20 -5 6 -3 12 -9 12 -14 0 -5 -10 -4
-22 2 -21 11 -22 11 -9 -4 12 -15 11 -17 -4 -17 -14 0 -15 -3 -5 -15 7 -8 10
-16 6 -16 -10 -2 -25 -6 -33 -9 -5 -1 -11 -2 -16 -1 -10 1 -4 -22 8 -32 6 -5
1 -7 -11 -4 -15 3 -21 0 -20 -11 1 -18 -43 -24 -62 -9 -11 8 -16 7 -23 -6 -6
-9 -18 -17 -27 -18 -10 0 -12 -3 -4 -6 6 -2 12 -9 12 -14 0 -6 -5 -7 -10 -4
-6 4 -9 1 -8 -6 2 -7 -1 -14 -7 -15 -27 -5 -55 -17 -55 -24 0 -5 10 -12 21
-15 19 -6 20 -9 6 -22 -16 -16 -42 -9 -31 8 3 6 -3 5 -15 -3 -22 -13 -23 -35
-2 -30 7 1 10 -2 6 -8 -5 -8 -11 -8 -19 -1 -7 6 -16 8 -19 4 -4 -3 -16 2 -27
12 -20 18 -21 18 -36 -1 -8 -10 -13 -14 -10 -7 7 13 -19 43 -38 43 -17 0 -48
-35 -39 -43 3 -4 1 -7 -5 -7 -17 0 -15 15 3 30 8 7 12 16 10 21 -3 4 4 13 15
19 11 6 19 14 19 18 -3 19 2 31 17 34 14 3 13 6 -4 26 -12 14 -23 19 -27 12
-3 -5 -1 -10 4 -10 6 0 11 -5 11 -12 0 -9 -3 -9 -12 0 -7 7 -16 12 -22 12 -5
0 -1 -6 10 -14 14 -11 16 -17 7 -26 -8 -9 -14 -7 -23 11 -10 19 -10 24 4 34
22 17 21 46 -1 38 -15 -6 -15 -3 3 28 29 49 36 79 17 79 -8 0 -11 -5 -8 -10 3
-6 -10 -27 -30 -48 -24 -24 -33 -29 -26 -14 7 12 8 22 3 22 -10 0 -30 -21 -31
-32 -1 -9 -6 -9 -25 -2 -8 3 -12 13 -9 25 4 14 9 17 18 9 9 -7 16 -5 26 7 13
16 12 17 -3 4 -29 -22 -21 -2 12 31 17 16 30 25 30 19 0 -6 5 -11 10 -11 6 0
6 7 -2 19 -6 10 -18 17 -25 14 -8 -3 -11 -8 -9 -11 9 -8 -14 -32 -30 -32 -10
0 -8 6 6 20 11 11 21 25 21 30 1 6 2 15 3 20 0 6 6 14 12 18 6 4 16 17 23 30
7 12 16 20 22 17 5 -4 9 -2 9 4 0 5 -8 15 -17 21 -16 10 -15 11 5 6 19 -4 21
-2 11 10 -7 8 -18 13 -25 10 -7 -3 -16 -1 -19 4 -4 6 -1 10 4 10 6 0 11 5 11
12 0 6 -8 4 -19 -6 -18 -17 -20 -17 -30 1 -6 10 -11 13 -11 8 0 -6 11 -22 25
-37 20 -22 22 -28 10 -38 -8 -7 -20 -10 -26 -8 -15 5 -21 98 -7 98 6 0 8 3 5
7 -4 3 -1 13 6 21 10 13 9 15 -5 9 -10 -3 -18 -2 -18 3 0 6 4 10 9 10 5 0 7 8
4 19 -3 13 -11 17 -26 14 -17 -4 -19 -2 -8 5 12 9 12 13 -2 26 -8 9 -21 16
-27 16 -8 0 -10 9 -6 25 4 17 2 25 -6 26 -7 0 -3 4 10 9 12 5 22 17 22 25 0
10 5 13 12 9 7 -5 8 -3 3 6 -6 10 -12 7 -24 -9 -16 -21 -17 -21 -17 -2 0 11 4
17 8 15 4 -3 8 2 8 10 0 19 21 21 38 4 9 -9 12 -7 13 13 1 13 1 27 1 30 -1 4
8 4 20 1 17 -4 20 -2 15 11 -4 11 -2 14 7 11 19 -7 27 22 10 37 -13 10 -12 14
2 30 10 11 22 19 29 19 6 0 21 9 33 21 12 11 27 17 32 14 5 -3 7 0 5 8 -3 7 3
22 15 32 16 15 18 21 7 34 -11 14 -10 14 6 2 9 -8 20 -11 23 -8 9 9 -22 37
-31 29 -5 -4 -5 -1 -1 6 4 6 14 12 22 12 8 0 12 -4 9 -10 -3 -5 -1 -10 4 -10
11 0 12 3 15 38 2 24 16 43 26 37 5 -3 14 4 20 15 6 11 15 18 20 15 5 -3 32
17 61 44 29 28 55 49 58 48 4 -1 22 14 40 33 18 19 29 29 25 21 -4 -7 7 -3 25
10 23 17 29 28 25 42 -5 15 -3 19 9 14 12 -4 14 -2 10 10 -5 12 -2 15 10 10 9
-3 17 -2 17 3 0 6 7 10 15 10 8 0 15 4 15 8 0 5 11 15 25 22 14 7 25 17 25 22
0 5 -5 6 -12 2 -7 -4 -8 -3 -4 5 4 6 12 9 17 5 16 -9 81 46 75 63 -4 10 -2 13
7 10 10 -4 14 2 12 16 -2 32 14 59 31 53 9 -3 12 -1 9 4 -3 6 0 10 8 10 16 0
50 34 41 42 -3 4 4 9 15 13 21 6 35 38 29 66 -2 9 5 14 19 13 12 0 22 2 21 5
0 3 0 13 1 21 1 13 2 13 11 0 8 -13 10 -12 10 3 0 9 5 17 10 17 6 0 10 5 10
11 0 5 -5 7 -11 3 -8 -4 -8 -1 -1 13 16 29 36 43 65 45 14 1 23 6 21 10 -3 4
1 8 9 8 16 0 37 41 37 73 0 29 61 87 92 87 16 0 42 19 81 60 50 54 77 72 77
54z"/>
</g>
</svg>
