<svg xmlns="http://www.w3.org/2000/svg" class="font" viewBox="0 0 300 300"><rect width="300" height="300" x="0" y="0" fill="#0B173D" class="logo-background-square"/><g id="d176f3eb-d3f3-43b7-a4ef-5178c60ce735" fill="#D1A103"><path d="M0.69 9.04L1.07 9.04L1.07 9.72L1.07 9.72Q1.07 10.26 1.24 10.76L1.24 10.76L1.24 10.76Q1.41 11.25 1.73 11.63L1.73 11.63L1.73 11.63Q2.04 12.01 2.50 12.24L2.50 12.24L2.50 12.24Q2.95 12.47 3.52 12.47L3.52 12.47L4.03 12.47L4.03 12.47Q4.46 12.47 4.75 12.37L4.75 12.37L4.75 12.37Q5.05 12.28 5.23 12.09L5.23 12.09L5.23 12.09Q5.41 11.89 5.50 11.61L5.50 11.61L5.50 11.61Q5.58 11.32 5.58 10.94L5.58 10.94L5.58 10.48L5.58 10.48Q5.58 10.11 5.47 9.84L5.47 9.84L5.47 9.84Q5.37 9.58 5.19 9.38L5.19 9.38L5.19 9.38Q5.00 9.18 4.76 9.04L4.76 9.04L4.76 9.04Q4.51 8.89 4.22 8.76L4.22 8.76L4.22 8.76Q3.86 8.60 3.45 8.43L3.45 8.43L3.45 8.43Q3.04 8.25 2.63 8.05L2.63 8.05L2.63 8.05Q2.23 7.84 1.86 7.60L1.86 7.60L1.86 7.60Q1.50 7.36 1.23 7.07L1.23 7.07L1.23 7.07Q1.09 6.92 0.98 6.72L0.98 6.72L0.98 6.72Q0.88 6.53 0.82 6.31L0.82 6.31L0.82 6.31Q0.75 6.10 0.72 5.88L0.72 5.88L0.72 5.88Q0.69 5.65 0.69 5.44L0.69 5.44L0.69 5.44Q0.69 5.27 0.70 5.03L0.70 5.03L0.70 5.03Q0.70 4.79 0.76 4.52L0.76 4.52L0.76 4.52Q0.81 4.26 0.93 4.00L0.93 4.00L0.93 4.00Q1.05 3.75 1.28 3.54L1.28 3.54L1.28 3.54Q1.51 3.34 1.87 3.21L1.87 3.21L1.87 3.21Q2.24 3.08 2.77 3.08L2.77 3.08L5.16 3.08L5.16 3.08Q5.48 3.08 5.76 3.20L5.76 3.20L5.76 3.20Q6.04 3.32 6.25 3.53L6.25 3.53L6.25 3.53Q6.46 3.74 6.58 4.02L6.58 4.02L6.58 4.02Q6.71 4.29 6.71 4.61L6.71 4.61L6.71 5.91L6.31 5.91L6.31 5.91Q6.28 5.41 6.08 4.96L6.08 4.96L6.08 4.96Q5.89 4.50 5.57 4.17L5.57 4.17L5.57 4.17Q5.25 3.83 4.82 3.63L4.82 3.63L4.82 3.63Q4.38 3.42 3.86 3.42L3.86 3.42L3.77 3.42L3.77 3.42Q3.31 3.42 3.01 3.50L3.01 3.50L3.01 3.50Q2.71 3.58 2.54 3.76L2.54 3.76L2.54 3.76Q2.36 3.94 2.29 4.23L2.29 4.23L2.29 4.23Q2.21 4.52 2.21 4.95L2.21 4.95L2.21 4.95Q2.21 5.20 2.27 5.43L2.27 5.43L2.27 5.43Q2.33 5.67 2.54 5.92L2.54 5.92L2.54 5.92Q2.75 6.16 3.15 6.42L3.15 6.42L3.15 6.42Q3.55 6.68 4.23 6.97L4.23 6.97L4.23 6.97Q4.52 7.09 4.84 7.22L4.84 7.22L4.84 7.22Q5.16 7.34 5.48 7.50L5.48 7.50L5.48 7.50Q5.80 7.66 6.09 7.86L6.09 7.86L6.09 7.86Q6.38 8.07 6.61 8.34L6.61 8.34L6.61 8.34Q6.84 8.61 6.97 8.97L6.97 8.97L6.97 8.97Q7.10 9.32 7.10 9.78L7.10 9.78L7.10 10.38L7.10 10.38Q7.10 11.56 6.55 12.18L6.55 12.18L6.55 12.18Q6.00 12.80 4.86 12.80L4.86 12.80L2.21 12.80L2.21 12.80Q1.90 12.80 1.62 12.68L1.62 12.68L1.62 12.68Q1.35 12.56 1.14 12.36L1.14 12.36L1.14 12.36Q0.93 12.15 0.81 11.87L0.81 11.87L0.81 11.87Q0.69 11.59 0.69 11.28L0.69 11.28L0.69 9.04ZM8.47 15.15L8.47 5.27L12.57 5.27L12.57 5.27Q12.88 5.27 13.16 5.39L13.16 5.39L13.16 5.39Q13.43 5.51 13.64 5.72L13.64 5.72L13.64 5.72Q13.85 5.93 13.97 6.21L13.97 6.21L13.97 6.21Q14.09 6.49 14.09 6.80L14.09 6.80L14.09 11.28L14.09 11.28Q14.09 11.60 13.97 11.88L13.97 11.88L13.97 11.88Q13.85 12.16 13.64 12.37L13.64 12.37L13.64 12.37Q13.43 12.57 13.16 12.69L13.16 12.69L13.16 12.69Q12.88 12.81 12.57 12.81L12.57 12.81L10.01 12.81L10.01 13.52L10.01 13.52Q10.01 13.98 9.94 14.29L9.94 14.29L9.94 14.29Q9.86 14.60 9.67 14.79L9.67 14.79L9.67 14.79Q9.49 14.98 9.19 15.07L9.19 15.07L9.19 15.07Q8.90 15.15 8.47 15.15L8.47 15.15ZM10.01 5.62L10.01 12.47L11.03 12.47L11.03 12.47Q11.46 12.47 11.75 12.39L11.75 12.39L11.75 12.39Q12.04 12.31 12.23 12.13L12.23 12.13L12.23 12.13Q12.41 11.96 12.49 11.67L12.49 11.67L12.49 11.67Q12.57 11.38 12.57 10.95L12.57 10.95L12.57 7.14L12.57 7.14Q12.57 6.36 12.28 5.99L12.28 5.99L12.28 5.99Q12.00 5.62 11.30 5.62L11.30 5.62L10.01 5.62ZM19.95 7.30L19.53 7.30L19.53 7.30Q19.48 7.01 19.38 6.72L19.38 6.72L19.38 6.72Q19.27 6.43 19.11 6.20L19.11 6.20L19.11 6.20Q18.94 5.97 18.72 5.83L18.72 5.83L18.72 5.83Q18.49 5.69 18.20 5.69L18.20 5.69L18.20 5.69Q17.80 5.69 17.58 5.99L17.58 5.99L17.58 5.99Q17.36 6.28 17.36 6.73L17.36 6.73L17.36 11.21L17.36 11.21Q17.36 11.66 17.29 11.96L17.29 11.96L17.29 11.96Q17.22 12.26 17.05 12.45L17.05 12.45L17.05 12.45Q16.87 12.64 16.57 12.72L16.57 12.72L16.57 12.72Q16.27 12.80 15.82 12.80L15.82 12.80L15.82 6.90L15.82 6.90Q15.82 6.45 15.90 6.13L15.90 6.13L15.90 6.13Q15.98 5.82 16.16 5.63L16.16 5.63L16.16 5.63Q16.34 5.43 16.64 5.35L16.64 5.35L16.64 5.35Q16.93 5.27 17.36 5.27L17.36 5.27L18.81 5.27L18.81 5.27Q19.16 5.27 19.38 5.39L19.38 5.39L19.38 5.39Q19.60 5.50 19.73 5.70L19.73 5.70L19.73 5.70Q19.85 5.90 19.90 6.17L19.90 6.17L19.90 6.17Q19.94 6.43 19.95 6.73L19.95 6.73L19.95 7.30ZM22.48 7.79L25.09 7.79L25.09 7.14L25.09 7.14Q25.09 6.32 24.70 5.97L24.70 5.97L24.70 5.97Q24.31 5.63 23.50 5.63L23.50 5.63L23.50 5.63Q23.09 5.63 22.81 5.70L22.81 5.70L22.81 5.70Q22.52 5.78 22.35 5.96L22.35 5.96L22.35 5.96Q22.17 6.15 22.09 6.43L22.09 6.43L22.09 6.43Q22.01 6.72 22.01 7.14L22.01 7.14L22.01 7.30L21.62 7.30L21.62 6.18L21.62 6.18Q21.62 5.87 21.64 5.69L21.64 5.69L21.64 5.69Q21.66 5.51 21.74 5.42L21.74 5.42L21.74 5.42Q21.82 5.33 21.98 5.31L21.98 5.31L21.98 5.31Q22.14 5.28 22.43 5.28L22.43 5.28L25.09 5.28L25.09 5.28Q25.37 5.28 25.64 5.42L25.64 5.42L25.64 5.42Q25.91 5.55 26.12 5.77L26.12 5.77L26.12 5.77Q26.34 5.98 26.47 6.25L26.47 6.25L26.47 6.25Q26.60 6.53 26.60 6.81L26.60 6.81L26.60 11.27L26.60 11.27Q26.60 11.58 26.48 11.85L26.48 11.85L26.48 11.85Q26.35 12.12 26.14 12.33L26.14 12.33L26.14 12.33Q25.93 12.53 25.66 12.66L25.66 12.66L25.66 12.66Q25.38 12.78 25.09 12.80L25.09 12.80L22.48 12.80L22.48 12.80Q22.17 12.80 21.90 12.68L21.90 12.68L21.90 12.68Q21.62 12.56 21.42 12.36L21.42 12.36L21.42 12.36Q21.21 12.15 21.09 11.87L21.09 11.87L21.09 11.87Q20.97 11.59 20.97 11.27L20.97 11.27L20.97 9.31L20.97 9.31Q20.97 9.00 21.09 8.72L21.09 8.72L21.09 8.72Q21.21 8.44 21.42 8.23L21.42 8.23L21.42 8.23Q21.62 8.03 21.90 7.91L21.90 7.91L21.90 7.91Q22.17 7.79 22.48 7.79L22.48 7.79ZM25.09 10.94L25.09 8.13L24.04 8.13L24.04 8.13Q23.61 8.13 23.31 8.21L23.31 8.21L23.31 8.21Q23.02 8.29 22.83 8.46L22.83 8.46L22.83 8.46Q22.65 8.64 22.57 8.93L22.57 8.93L22.57 8.93Q22.48 9.22 22.48 9.64L22.48 9.64L22.48 10.94L22.48 10.94Q22.48 11.33 22.55 11.60L22.55 11.60L22.55 11.60Q22.62 11.87 22.77 12.06L22.77 12.06L22.77 12.06Q22.92 12.24 23.16 12.33L23.16 12.33L23.16 12.33Q23.41 12.43 23.75 12.46L23.75 12.46L23.75 12.46Q24.12 12.43 24.38 12.34L24.38 12.34L24.38 12.34Q24.63 12.25 24.79 12.07L24.79 12.07L24.79 12.07Q24.95 11.89 25.02 11.61L25.02 11.61L25.02 11.61Q25.09 11.33 25.09 10.94L25.09 10.94ZM28.33 13.51L28.73 13.51L28.73 13.51Q28.76 13.83 28.86 14.05L28.86 14.05L28.86 14.05Q28.96 14.27 29.15 14.41L29.15 14.41L29.15 14.41Q29.33 14.55 29.61 14.61L29.61 14.61L29.61 14.61Q29.89 14.67 30.28 14.67L30.28 14.67L30.91 14.67L30.91 14.67Q31.63 14.67 32.02 14.44L32.02 14.44L32.02 14.44Q32.42 14.21 32.42 13.62L32.42 13.62L32.42 12.80L29.77 12.80L29.77 12.80Q29.47 12.80 29.21 12.68L29.21 12.68L29.21 12.68Q28.94 12.56 28.75 12.35L28.75 12.35L28.75 12.35Q28.55 12.14 28.44 11.87L28.44 11.87L28.44 11.87Q28.33 11.59 28.33 11.29L28.33 11.29L28.33 6.79L28.33 6.79Q28.33 6.48 28.43 6.20L28.43 6.20L28.43 6.20Q28.54 5.93 28.73 5.72L28.73 5.72L28.73 5.72Q28.92 5.51 29.19 5.39L29.19 5.39L29.19 5.39Q29.46 5.27 29.77 5.27L29.77 5.27L33.98 5.27L33.98 13.62L33.98 13.62Q33.98 14.01 33.88 14.27L33.88 14.27L33.88 14.27Q33.78 14.54 33.58 14.70L33.58 14.70L33.58 14.70Q33.38 14.87 33.09 14.94L33.09 14.94L33.09 14.94Q32.79 15.01 32.42 15.01L32.42 15.01L29.77 15.01L29.77 15.01Q29.29 15.01 29.01 14.86L29.01 14.86L29.01 14.86Q28.72 14.70 28.57 14.48L28.57 14.48L28.57 14.48Q28.42 14.25 28.38 13.99L28.38 13.99L28.38 13.99Q28.33 13.73 28.33 13.51L28.33 13.51ZM31.14 12.46L31.14 12.46L31.14 12.46Q31.84 12.46 32.13 12.09L32.13 12.09L32.13 12.09Q32.42 11.73 32.42 10.96L32.42 10.96L32.42 5.61L31.40 5.61L31.40 5.61Q30.97 5.61 30.68 5.69L30.68 5.69L30.68 5.69Q30.38 5.77 30.19 5.95L30.19 5.95L30.19 5.95Q30.01 6.13 29.93 6.42L29.93 6.42L29.93 6.42Q29.85 6.71 29.85 7.14L29.85 7.14L29.85 10.96L29.85 10.96Q29.85 11.73 30.14 12.09L30.14 12.09L30.14 12.09Q30.43 12.46 31.14 12.46ZM35.71 13.51L36.11 13.51L36.11 13.51Q36.14 13.83 36.24 14.05L36.24 14.05L36.24 14.05Q36.35 14.27 36.53 14.41L36.53 14.41L36.53 14.41Q36.72 14.55 37.00 14.61L37.00 14.61L37.00 14.61Q37.28 14.67 37.66 14.67L37.66 14.67L38.29 14.67L38.29 14.67Q39.01 14.67 39.41 14.44L39.41 14.44L39.41 14.44Q39.80 14.21 39.80 13.62L39.80 13.62L39.80 12.80L37.15 12.80L37.15 12.80Q36.85 12.80 36.59 12.68L36.59 12.68L36.59 12.68Q36.33 12.56 36.13 12.35L36.13 12.35L36.13 12.35Q35.94 12.14 35.82 11.87L35.82 11.87L35.82 11.87Q35.71 11.59 35.71 11.29L35.71 11.29L35.71 6.79L35.71 6.79Q35.71 6.48 35.82 6.20L35.82 6.20L35.82 6.20Q35.92 5.93 36.11 5.72L36.11 5.72L36.11 5.72Q36.31 5.51 36.57 5.39L36.57 5.39L36.57 5.39Q36.84 5.27 37.15 5.27L37.15 5.27L41.36 5.27L41.36 13.62L41.36 13.62Q41.36 14.01 41.26 14.27L41.26 14.27L41.26 14.27Q41.16 14.54 40.96 14.70L40.96 14.70L40.96 14.70Q40.76 14.87 40.47 14.94L40.47 14.94L40.47 14.94Q40.17 15.01 39.80 15.01L39.80 15.01L37.15 15.01L37.15 15.01Q36.67 15.01 36.39 14.86L36.39 14.86L36.39 14.86Q36.11 14.70 35.96 14.48L35.96 14.48L35.96 14.48Q35.81 14.25 35.76 13.99L35.76 13.99L35.76 13.99Q35.71 13.73 35.71 13.51L35.71 13.51ZM38.52 12.46L38.52 12.46L38.52 12.46Q39.22 12.46 39.51 12.09L39.51 12.09L39.51 12.09Q39.80 11.73 39.80 10.96L39.80 10.96L39.80 5.61L38.79 5.61L38.79 5.61Q38.36 5.61 38.06 5.69L38.06 5.69L38.06 5.69Q37.76 5.77 37.58 5.95L37.58 5.95L37.58 5.95Q37.39 6.13 37.31 6.42L37.31 6.42L37.31 6.42Q37.23 6.71 37.23 7.14L37.23 7.14L37.23 10.96L37.23 10.96Q37.23 11.73 37.52 12.09L37.52 12.09L37.52 12.09Q37.82 12.46 38.52 12.46ZM43.88 2.75L43.88 2.75L43.88 2.75Q44.05 2.75 44.21 2.82L44.21 2.82L44.21 2.82Q44.37 2.89 44.48 3.01L44.48 3.01L44.48 3.01Q44.60 3.12 44.67 3.28L44.67 3.28L44.67 3.28Q44.73 3.44 44.73 3.62L44.73 3.62L44.73 3.62Q44.73 3.79 44.67 3.95L44.67 3.95L44.67 3.95Q44.60 4.12 44.48 4.23L44.48 4.23L44.48 4.23Q44.37 4.35 44.21 4.43L44.21 4.43L44.21 4.43Q44.05 4.50 43.88 4.50L43.88 4.50L43.88 4.50Q43.70 4.50 43.54 4.43L43.54 4.43L43.54 4.43Q43.39 4.35 43.27 4.23L43.27 4.23L43.27 4.23Q43.15 4.12 43.08 3.95L43.08 3.95L43.08 3.95Q43.00 3.79 43.00 3.62L43.00 3.62L43.00 3.62Q43.00 3.45 43.08 3.29L43.08 3.29L43.08 3.29Q43.15 3.13 43.27 3.01L43.27 3.01L43.27 3.01Q43.39 2.89 43.54 2.82L43.54 2.82L43.54 2.82Q43.70 2.75 43.88 2.75ZM44.64 5.15L44.64 11.22L44.64 11.22Q44.64 11.66 44.57 11.97L44.57 11.97L44.57 11.97Q44.50 12.27 44.32 12.46L44.32 12.46L44.32 12.46Q44.15 12.64 43.85 12.72L43.85 12.72L43.85 12.72Q43.55 12.80 43.10 12.80L43.10 12.80L43.10 6.78L43.10 6.78Q43.10 6.32 43.18 6.01L43.18 6.01L43.18 6.01Q43.26 5.70 43.45 5.51L43.45 5.51L43.45 5.51Q43.63 5.32 43.92 5.23L43.92 5.23L43.92 5.23Q44.21 5.15 44.64 5.15L44.64 5.15ZM50.48 5.27L50.48 5.27L50.48 5.27Q50.78 5.27 51.06 5.39L51.06 5.39L51.06 5.39Q51.34 5.51 51.56 5.72L51.56 5.72L51.56 5.72Q51.77 5.93 51.90 6.21L51.90 6.21L51.90 6.21Q52.02 6.49 52.02 6.80L52.02 6.80L52.02 11.20L52.02 11.20Q52.02 11.65 51.95 11.96L51.95 11.96L51.95 11.96Q51.88 12.26 51.70 12.45L51.70 12.45L51.70 12.45Q51.53 12.64 51.23 12.72L51.23 12.72L51.23 12.72Q50.93 12.80 50.48 12.80L50.48 12.80L50.48 7.13L50.48 7.13Q50.48 6.34 50.17 5.98L50.17 5.98L50.17 5.98Q49.87 5.62 49.21 5.62L49.21 5.62L47.93 5.62L47.93 11.20L47.93 11.20Q47.93 11.65 47.86 11.96L47.86 11.96L47.86 11.96Q47.79 12.26 47.61 12.45L47.61 12.45L47.61 12.45Q47.43 12.64 47.13 12.72L47.13 12.72L47.13 12.72Q46.83 12.80 46.38 12.80L46.38 12.80L46.38 5.27L49.21 5.27L50.48 5.27ZM55.27 5.27L55.27 5.27L57.69 5.27L57.69 5.27Q58.19 5.27 58.47 5.42L58.47 5.42L58.47 5.42Q58.75 5.58 58.88 5.81L58.88 5.81L58.88 5.81Q59.01 6.04 59.03 6.30L59.03 6.30L59.03 6.30Q59.06 6.56 59.06 6.79L59.06 6.79L59.06 7.29L58.64 7.29L58.64 7.29Q58.58 6.92 58.44 6.62L58.44 6.62L58.44 6.62Q58.29 6.31 58.05 6.09L58.05 6.09L58.05 6.09Q57.82 5.87 57.50 5.74L57.50 5.74L57.50 5.74Q57.18 5.61 56.79 5.61L56.79 5.61L56.40 5.61L56.40 5.61Q55.98 5.61 55.70 5.68L55.70 5.68L55.70 5.68Q55.42 5.75 55.25 5.91L55.25 5.91L55.25 5.91Q55.08 6.06 55.01 6.32L55.01 6.32L55.01 6.32Q54.94 6.58 54.94 6.96L54.94 6.96L54.94 6.96Q54.94 7.25 55.11 7.46L55.11 7.46L55.11 7.46Q55.28 7.67 55.56 7.83L55.56 7.83L55.56 7.83Q55.84 7.99 56.19 8.11L56.19 8.11L56.19 8.11Q56.55 8.24 56.93 8.34L56.93 8.34L56.93 8.34Q57.31 8.44 57.68 8.54L57.68 8.54L57.68 8.54Q58.05 8.64 58.36 8.76L58.36 8.76L58.36 8.76Q58.58 8.84 58.77 8.98L58.77 8.98L58.77 8.98Q58.95 9.12 59.09 9.31L59.09 9.31L59.09 9.31Q59.23 9.50 59.31 9.72L59.31 9.72L59.31 9.72Q59.38 9.95 59.38 10.19L59.38 10.19L59.38 11.28L59.38 11.28Q59.38 11.59 59.26 11.87L59.26 11.87L59.26 11.87Q59.14 12.15 58.94 12.36L58.94 12.36L58.94 12.36Q58.73 12.56 58.45 12.68L58.45 12.68L58.45 12.68Q58.17 12.80 57.85 12.80L57.85 12.80L55.69 12.80L55.69 12.80Q55.17 12.80 54.80 12.71L54.80 12.71L54.80 12.71Q54.43 12.61 54.20 12.39L54.20 12.39L54.20 12.39Q53.97 12.17 53.86 11.82L53.86 11.82L53.86 11.82Q53.75 11.46 53.75 10.95L53.75 10.95L53.75 10.29L54.14 10.29L54.14 10.95L54.14 10.95Q54.14 11.38 54.22 11.67L54.22 11.67L54.22 11.67Q54.30 11.96 54.49 12.13L54.49 12.13L54.49 12.13Q54.67 12.31 54.96 12.39L54.96 12.39L54.96 12.39Q55.25 12.46 55.69 12.46L55.69 12.46L56.64 12.46L56.64 12.46Q57.07 12.46 57.36 12.41L57.36 12.41L57.36 12.41Q57.65 12.36 57.84 12.21L57.84 12.21L57.84 12.21Q58.02 12.06 58.10 11.80L58.10 11.80L58.10 11.80Q58.17 11.54 58.17 11.12L58.17 11.12L58.17 10.94L58.17 10.94Q58.17 10.60 57.98 10.39L57.98 10.39L57.98 10.39Q57.79 10.17 57.48 10.02L57.48 10.02L57.48 10.02Q57.17 9.88 56.77 9.78L56.77 9.78L56.77 9.78Q56.38 9.68 55.96 9.57L55.96 9.57L55.96 9.57Q55.55 9.45 55.15 9.31L55.15 9.31L55.15 9.31Q54.76 9.17 54.44 8.93L54.44 8.93L54.44 8.93Q54.13 8.70 53.94 8.35L53.94 8.35L53.94 8.35Q53.75 8.00 53.75 7.49L53.75 7.49L53.75 6.79L53.75 6.79Q53.75 6.47 53.87 6.20L53.87 6.20L53.87 6.20Q53.99 5.92 54.20 5.71L54.20 5.71L54.20 5.71Q54.40 5.51 54.68 5.39L54.68 5.39L54.68 5.39Q54.95 5.27 55.27 5.27ZM69.04 3.43L66.35 3.43L66.35 12.46L69.04 12.46L69.04 12.46Q69.36 12.43 69.58 12.33L69.58 12.33L69.58 12.33Q69.80 12.23 69.94 12.05L69.94 12.05L69.94 12.05Q70.08 11.87 70.14 11.60L70.14 11.60L70.14 11.60Q70.21 11.33 70.21 10.96L70.21 10.96L70.21 4.93L70.21 4.93Q70.21 4.18 69.94 3.81L69.94 3.81L69.94 3.81Q69.68 3.43 69.04 3.43L69.04 3.43ZM64.79 12.80L64.79 3.99L64.79 3.99Q64.79 3.67 64.80 3.49L64.80 3.49L64.80 3.49Q64.81 3.31 64.88 3.22L64.88 3.22L64.88 3.22Q64.96 3.13 65.12 3.11L65.12 3.11L65.12 3.11Q65.29 3.08 65.60 3.08L65.60 3.08L70.21 3.08L70.21 3.08Q70.52 3.08 70.80 3.21L70.80 3.21L70.80 3.21Q71.09 3.33 71.30 3.54L71.30 3.54L71.30 3.54Q71.51 3.75 71.63 4.03L71.63 4.03L71.63 4.03Q71.76 4.31 71.76 4.62L71.76 4.62L71.76 11.27L71.76 11.27Q71.76 11.58 71.63 11.86L71.63 11.86L71.63 11.86Q71.51 12.14 71.30 12.35L71.30 12.35L71.30 12.35Q71.09 12.56 70.80 12.68L70.80 12.68L70.80 12.68Q70.52 12.80 70.21 12.80L70.21 12.80L64.79 12.80ZM76.30 5.63L76.30 5.63L76.30 5.63Q75.58 5.63 75.29 5.98L75.29 5.98L75.29 5.98Q75.00 6.34 75.00 7.12L75.00 7.12L75.00 7.77L77.59 7.77L77.59 7.12L77.59 7.12Q77.59 6.73 77.53 6.45L77.53 6.45L77.53 6.45Q77.46 6.17 77.30 5.98L77.30 5.98L77.30 5.98Q77.15 5.80 76.90 5.71L76.90 5.71L76.90 5.71Q76.66 5.63 76.30 5.63ZM79.11 8.11L75.00 8.11L75.00 10.95L75.00 10.95Q75.00 11.38 75.08 11.67L75.08 11.67L75.08 11.67Q75.16 11.96 75.34 12.14L75.34 12.14L75.34 12.14Q75.52 12.32 75.82 12.40L75.82 12.40L75.82 12.40Q76.12 12.48 76.55 12.48L76.55 12.48L76.62 12.48L76.62 12.48Q77.05 12.48 77.35 12.40L77.35 12.40L77.35 12.40Q77.64 12.32 77.83 12.14L77.83 12.14L77.83 12.14Q78.01 11.96 78.09 11.67L78.09 11.67L78.09 11.67Q78.17 11.38 78.17 10.95L78.17 10.95L78.17 10.30L78.56 10.30L78.56 11.29L78.56 11.29Q78.56 11.51 78.51 11.78L78.51 11.78L78.51 11.78Q78.46 12.04 78.31 12.27L78.31 12.27L78.31 12.27Q78.15 12.50 77.85 12.65L77.85 12.65L77.85 12.65Q77.55 12.80 77.04 12.80L77.04 12.80L75.00 12.80L75.00 12.80Q74.72 12.80 74.45 12.67L74.45 12.67L74.45 12.67Q74.18 12.54 73.97 12.33L73.97 12.33L73.97 12.33Q73.75 12.11 73.62 11.84L73.62 11.84L73.62 11.84Q73.49 11.57 73.49 11.29L73.49 11.29L73.49 6.79L73.49 6.79Q73.49 6.49 73.61 6.22L73.61 6.22L73.61 6.22Q73.73 5.95 73.94 5.75L73.94 5.75L73.94 5.75Q74.16 5.54 74.43 5.42L74.43 5.42L74.43 5.42Q74.70 5.29 75.00 5.27L75.00 5.27L77.59 5.27L77.59 5.27Q77.91 5.27 78.19 5.39L78.19 5.39L78.19 5.39Q78.46 5.51 78.67 5.72L78.67 5.72L78.67 5.72Q78.87 5.93 78.99 6.20L78.99 6.20L78.99 6.20Q79.11 6.48 79.11 6.79L79.11 6.79L79.11 8.11ZM82.00 5.27L82.00 5.27L84.42 5.27L84.42 5.27Q84.92 5.27 85.20 5.42L85.20 5.42L85.20 5.42Q85.48 5.58 85.61 5.81L85.61 5.81L85.61 5.81Q85.74 6.04 85.76 6.30L85.76 6.30L85.76 6.30Q85.78 6.56 85.78 6.79L85.78 6.79L85.78 7.29L85.37 7.29L85.37 7.29Q85.31 6.92 85.17 6.62L85.17 6.62L85.17 6.62Q85.02 6.31 84.78 6.09L84.78 6.09L84.78 6.09Q84.55 5.87 84.23 5.74L84.23 5.74L84.23 5.74Q83.91 5.61 83.52 5.61L83.52 5.61L83.13 5.61L83.13 5.61Q82.71 5.61 82.43 5.68L82.43 5.68L82.43 5.68Q82.15 5.75 81.98 5.91L81.98 5.91L81.98 5.91Q81.81 6.06 81.74 6.32L81.74 6.32L81.74 6.32Q81.67 6.58 81.67 6.96L81.67 6.96L81.67 6.96Q81.67 7.25 81.84 7.46L81.84 7.46L81.84 7.46Q82.00 7.67 82.28 7.83L82.28 7.83L82.28 7.83Q82.56 7.99 82.92 8.11L82.92 8.11L82.92 8.11Q83.28 8.24 83.66 8.34L83.66 8.34L83.66 8.34Q84.04 8.44 84.41 8.54L84.41 8.54L84.41 8.54Q84.78 8.64 85.09 8.76L85.09 8.76L85.09 8.76Q85.31 8.84 85.49 8.98L85.49 8.98L85.49 8.98Q85.68 9.12 85.82 9.31L85.82 9.31L85.82 9.31Q85.96 9.50 86.03 9.72L86.03 9.72L86.03 9.72Q86.11 9.95 86.11 10.19L86.11 10.19L86.11 11.28L86.11 11.28Q86.11 11.59 85.99 11.87L85.99 11.87L85.99 11.87Q85.87 12.15 85.66 12.36L85.66 12.36L85.66 12.36Q85.46 12.56 85.18 12.68L85.18 12.68L85.18 12.68Q84.90 12.80 84.58 12.80L84.58 12.80L82.41 12.80L82.41 12.80Q81.90 12.80 81.53 12.71L81.53 12.71L81.53 12.71Q81.16 12.61 80.93 12.39L80.93 12.39L80.93 12.39Q80.70 12.17 80.59 11.82L80.59 11.82L80.59 11.82Q80.48 11.46 80.48 10.95L80.48 10.95L80.48 10.29L80.87 10.29L80.87 10.95L80.87 10.95Q80.87 11.38 80.95 11.67L80.95 11.67L80.95 11.67Q81.03 11.96 81.21 12.13L81.21 12.13L81.21 12.13Q81.40 12.31 81.69 12.39L81.69 12.39L81.69 12.39Q81.98 12.46 82.41 12.46L82.41 12.46L83.36 12.46L83.36 12.46Q83.79 12.46 84.09 12.41L84.09 12.41L84.09 12.41Q84.38 12.36 84.56 12.21L84.56 12.21L84.56 12.21Q84.75 12.06 84.82 11.80L84.82 11.80L84.82 11.80Q84.90 11.54 84.90 11.12L84.90 11.12L84.90 10.94L84.90 10.94Q84.90 10.60 84.71 10.39L84.71 10.39L84.71 10.39Q84.52 10.17 84.21 10.02L84.21 10.02L84.21 10.02Q83.90 9.88 83.50 9.78L83.50 9.78L83.50 9.78Q83.10 9.68 82.69 9.57L82.69 9.57L82.69 9.57Q82.28 9.45 81.88 9.31L81.88 9.31L81.88 9.31Q81.48 9.17 81.17 8.93L81.17 8.93L81.17 8.93Q80.86 8.70 80.67 8.35L80.67 8.35L80.67 8.35Q80.48 8.00 80.48 7.49L80.48 7.49L80.48 6.79L80.48 6.79Q80.48 6.47 80.60 6.20L80.60 6.20L80.60 6.20Q80.72 5.92 80.92 5.71L80.92 5.71L80.92 5.71Q81.13 5.51 81.41 5.39L81.41 5.39L81.41 5.39Q81.68 5.27 82.00 5.27ZM88.27 2.75L88.27 2.75L88.27 2.75Q88.44 2.75 88.59 2.82L88.59 2.82L88.59 2.82Q88.75 2.89 88.87 3.01L88.87 3.01L88.87 3.01Q88.98 3.12 89.05 3.28L89.05 3.28L89.05 3.28Q89.12 3.44 89.12 3.62L89.12 3.62L89.12 3.62Q89.12 3.79 89.05 3.95L89.05 3.95L89.05 3.95Q88.98 4.12 88.87 4.23L88.87 4.23L88.87 4.23Q88.75 4.35 88.59 4.43L88.59 4.43L88.59 4.43Q88.44 4.50 88.27 4.50L88.27 4.50L88.27 4.50Q88.09 4.50 87.93 4.43L87.93 4.43L87.93 4.43Q87.77 4.35 87.65 4.23L87.65 4.23L87.65 4.23Q87.53 4.12 87.46 3.95L87.46 3.95L87.46 3.95Q87.39 3.79 87.39 3.62L87.39 3.62L87.39 3.62Q87.39 3.45 87.46 3.29L87.46 3.29L87.46 3.29Q87.53 3.13 87.65 3.01L87.65 3.01L87.65 3.01Q87.77 2.89 87.93 2.82L87.93 2.82L87.93 2.82Q88.09 2.75 88.27 2.75ZM89.02 5.15L89.02 11.22L89.02 11.22Q89.02 11.66 88.95 11.97L88.95 11.97L88.95 11.97Q88.88 12.27 88.71 12.46L88.71 12.46L88.71 12.46Q88.53 12.64 88.23 12.72L88.23 12.72L88.23 12.72Q87.94 12.80 87.49 12.80L87.49 12.80L87.49 6.78L87.49 6.78Q87.49 6.32 87.57 6.01L87.57 6.01L87.57 6.01Q87.65 5.70 87.83 5.51L87.83 5.51L87.83 5.51Q88.01 5.32 88.31 5.23L88.31 5.23L88.31 5.23Q88.60 5.15 89.02 5.15L89.02 5.15ZM90.76 13.51L91.16 13.51L91.16 13.51Q91.19 13.83 91.29 14.05L91.29 14.05L91.29 14.05Q91.40 14.27 91.58 14.41L91.58 14.41L91.58 14.41Q91.77 14.55 92.05 14.61L92.05 14.61L92.05 14.61Q92.33 14.67 92.71 14.67L92.71 14.67L93.34 14.67L93.34 14.67Q94.06 14.67 94.46 14.44L94.46 14.44L94.46 14.44Q94.85 14.21 94.85 13.62L94.85 13.62L94.85 12.80L92.20 12.80L92.20 12.80Q91.90 12.80 91.64 12.68L91.64 12.68L91.64 12.68Q91.38 12.56 91.18 12.35L91.18 12.35L91.18 12.35Q90.99 12.14 90.87 11.87L90.87 11.87L90.87 11.87Q90.76 11.59 90.76 11.29L90.76 11.29L90.76 6.79L90.76 6.79Q90.76 6.48 90.87 6.20L90.87 6.20L90.87 6.20Q90.97 5.93 91.16 5.72L91.16 5.72L91.16 5.72Q91.36 5.51 91.62 5.39L91.62 5.39L91.62 5.39Q91.89 5.27 92.20 5.27L92.20 5.27L96.41 5.27L96.41 13.62L96.41 13.62Q96.41 14.01 96.31 14.27L96.31 14.27L96.31 14.27Q96.21 14.54 96.01 14.70L96.01 14.70L96.01 14.70Q95.81 14.87 95.52 14.94L95.52 14.94L95.52 14.94Q95.22 15.01 94.85 15.01L94.85 15.01L92.20 15.01L92.20 15.01Q91.72 15.01 91.44 14.86L91.44 14.86L91.44 14.86Q91.16 14.70 91.01 14.48L91.01 14.48L91.01 14.48Q90.86 14.25 90.81 13.99L90.81 13.99L90.81 13.99Q90.76 13.73 90.76 13.51L90.76 13.51ZM93.57 12.46L93.57 12.46L93.57 12.46Q94.27 12.46 94.56 12.09L94.56 12.09L94.56 12.09Q94.85 11.73 94.85 10.96L94.85 10.96L94.85 5.61L93.84 5.61L93.84 5.61Q93.41 5.61 93.11 5.69L93.11 5.69L93.11 5.69Q92.81 5.77 92.63 5.95L92.63 5.95L92.63 5.95Q92.44 6.13 92.36 6.42L92.36 6.42L92.36 6.42Q92.28 6.71 92.28 7.14L92.28 7.14L92.28 10.96L92.28 10.96Q92.28 11.73 92.57 12.09L92.57 12.09L92.57 12.09Q92.87 12.46 93.57 12.46ZM102.25 5.27L102.25 5.27L102.25 5.27Q102.55 5.27 102.83 5.39L102.83 5.39L102.83 5.39Q103.11 5.51 103.33 5.72L103.33 5.72L103.33 5.72Q103.54 5.93 103.66 6.21L103.66 6.21L103.66 6.21Q103.79 6.49 103.79 6.80L103.79 6.80L103.79 11.20L103.79 11.20Q103.79 11.65 103.72 11.96L103.72 11.96L103.72 11.96Q103.65 12.26 103.47 12.45L103.47 12.45L103.47 12.45Q103.30 12.64 103.00 12.72L103.00 12.72L103.00 12.72Q102.70 12.80 102.25 12.80L102.25 12.80L102.25 7.13L102.25 7.13Q102.25 6.34 101.94 5.98L101.94 5.98L101.94 5.98Q101.64 5.62 100.97 5.62L100.97 5.62L99.70 5.62L99.70 11.20L99.70 11.20Q99.70 11.65 99.63 11.96L99.63 11.96L99.63 11.96Q99.56 12.26 99.38 12.45L99.38 12.45L99.38 12.45Q99.20 12.64 98.90 12.72L98.90 12.72L98.90 12.72Q98.59 12.80 98.14 12.80L98.14 12.80L98.14 5.27L100.97 5.27L102.25 5.27ZM107.04 5.27L107.04 5.27L109.46 5.27L109.46 5.27Q109.96 5.27 110.24 5.42L110.24 5.42L110.24 5.42Q110.52 5.58 110.65 5.81L110.65 5.81L110.65 5.81Q110.78 6.04 110.80 6.30L110.80 6.30L110.80 6.30Q110.82 6.56 110.82 6.79L110.82 6.79L110.82 7.29L110.41 7.29L110.41 7.29Q110.35 6.92 110.21 6.62L110.21 6.62L110.21 6.62Q110.06 6.31 109.82 6.09L109.82 6.09L109.82 6.09Q109.59 5.87 109.27 5.74L109.27 5.74L109.27 5.74Q108.95 5.61 108.56 5.61L108.56 5.61L108.17 5.61L108.17 5.61Q107.75 5.61 107.47 5.68L107.47 5.68L107.47 5.68Q107.19 5.75 107.02 5.91L107.02 5.91L107.02 5.91Q106.85 6.06 106.78 6.32L106.78 6.32L106.78 6.32Q106.71 6.58 106.71 6.96L106.71 6.96L106.71 6.96Q106.71 7.25 106.88 7.46L106.88 7.46L106.88 7.46Q107.04 7.67 107.32 7.83L107.32 7.83L107.32 7.83Q107.60 7.99 107.96 8.11L107.96 8.11L107.96 8.11Q108.32 8.24 108.70 8.34L108.70 8.34L108.70 8.34Q109.08 8.44 109.45 8.54L109.45 8.54L109.45 8.54Q109.82 8.64 110.13 8.76L110.13 8.76L110.13 8.76Q110.35 8.84 110.53 8.98L110.53 8.98L110.53 8.98Q110.72 9.12 110.86 9.31L110.86 9.31L110.86 9.31Q111.00 9.50 111.07 9.72L111.07 9.72L111.07 9.72Q111.15 9.95 111.15 10.19L111.15 10.19L111.15 11.28L111.15 11.28Q111.15 11.59 111.03 11.87L111.03 11.87L111.03 11.87Q110.91 12.15 110.70 12.36L110.70 12.36L110.70 12.36Q110.50 12.56 110.22 12.68L110.22 12.68L110.22 12.68Q109.94 12.80 109.62 12.80L109.62 12.80L107.45 12.80L107.45 12.80Q106.94 12.80 106.57 12.71L106.57 12.71L106.57 12.71Q106.20 12.61 105.97 12.39L105.97 12.39L105.97 12.39Q105.74 12.17 105.63 11.82L105.63 11.82L105.63 11.82Q105.52 11.46 105.52 10.95L105.52 10.95L105.52 10.29L105.91 10.29L105.91 10.95L105.91 10.95Q105.91 11.38 105.99 11.67L105.99 11.67L105.99 11.67Q106.07 11.96 106.25 12.13L106.25 12.13L106.25 12.13Q106.44 12.31 106.73 12.39L106.73 12.39L106.73 12.39Q107.02 12.46 107.45 12.46L107.45 12.46L108.40 12.46L108.40 12.46Q108.83 12.46 109.13 12.41L109.13 12.41L109.13 12.41Q109.42 12.36 109.60 12.21L109.60 12.21L109.60 12.21Q109.79 12.06 109.86 11.80L109.86 11.80L109.86 11.80Q109.94 11.54 109.94 11.12L109.94 11.12L109.94 10.94L109.94 10.94Q109.94 10.60 109.75 10.39L109.75 10.39L109.75 10.39Q109.56 10.17 109.25 10.02L109.25 10.02L109.25 10.02Q108.94 9.88 108.54 9.78L108.54 9.78L108.54 9.78Q108.14 9.68 107.73 9.57L107.73 9.57L107.73 9.57Q107.32 9.45 106.92 9.31L106.92 9.31L106.92 9.31Q106.52 9.17 106.21 8.93L106.21 8.93L106.21 8.93Q105.90 8.70 105.71 8.35L105.71 8.35L105.71 8.35Q105.52 8.00 105.52 7.49L105.52 7.49L105.52 6.79L105.52 6.79Q105.52 6.47 105.64 6.20L105.64 6.20L105.64 6.20Q105.76 5.92 105.96 5.71L105.96 5.71L105.96 5.71Q106.17 5.51 106.45 5.39L106.45 5.39L106.45 5.39Q106.72 5.27 107.04 5.27Z" transform="matrix(1.9917247295379639,0,0,1.9917247295379639,38.6229090780493,132.17561976164373)"/></g></svg>