<?xml version="1.0" standalone="no"?>
<!DOCTYPE svg PUBLIC "-//W3C//DTD SVG 1.0//EN" "http://www.w3.org/TR/2001/REC-SVG-20010904/DTD/svg10.dtd">
<svg xmlns="http://www.w3.org/2000/svg" xmlns:xlink="http://www.w3.org/1999/xlink" id="body_1" width="133" height="133">

<g transform="matrix(1.33 0 0 1.33 0 0)">
	<g>
	</g>
    <path d="M0 0L100 0L100 100L0 100z" stroke="none" fill="#0B173D" fill-rule="nonzero" />
	<g>
	</g>
    <path d="M29.234375 46.714844L29.429688 46.714844L29.429688 47.066406C 29.429688 47.253906 29.460938 47.433594 29.519531 47.609375C 29.578125 47.777344 29.664062 47.929688 29.773438 48.0625C 29.882812 48.191406 30.015625 48.296875 30.175781 48.378906C 30.332031 48.45703 30.507812 48.496094 30.703125 48.496094L30.703125 48.496094L30.96875 48.496094C 31.117188 48.496094 31.242188 48.48047 31.34375 48.445312C 31.449219 48.414062 31.53125 48.367188 31.59375 48.30078C 31.65625 48.23047 31.703125 48.148438 31.734375 48.05078C 31.761719 47.94922 31.777344 47.83203 31.777344 47.703125L31.777344 47.703125L31.777344 47.460938C 31.777344 47.335938 31.757812 47.222656 31.71875 47.128906C 31.683594 47.039062 31.636719 46.960938 31.574219 46.890625C 31.507812 46.820312 31.433594 46.76172 31.347656 46.714844C 31.261719 46.660156 31.167969 46.61328 31.070312 46.566406C 30.945312 46.51172 30.808594 46.45703 30.667969 46.398438C 30.527344 46.335938 30.382812 46.26953 30.242188 46.19922C 30.101562 46.125 29.96875 46.046875 29.839844 45.964844C 29.714844 45.882812 29.609375 45.789062 29.515625 45.691406C 29.464844 45.63672 29.421875 45.578125 29.382812 45.507812C 29.347656 45.441406 29.320312 45.371094 29.300781 45.29297C 29.277344 45.222656 29.257812 45.148438 29.25 45.070312C 29.238281 44.992188 29.234375 44.914062 29.234375 44.84375C 29.234375 44.78125 29.234375 44.710938 29.238281 44.628906C 29.238281 44.546875 29.25 44.45703 29.269531 44.36328C 29.285156 44.273438 29.316406 44.183594 29.359375 44.09375C 29.398438 44.007812 29.460938 43.92578 29.539062 43.85547C 29.621094 43.785156 29.722656 43.726562 29.847656 43.683594C 29.976562 43.63672 30.132812 43.61328 30.316406 43.61328L30.316406 43.61328L31.558594 43.61328C 31.667969 43.61328 31.773438 43.63672 31.871094 43.67578C 31.964844 43.71875 32.05078 43.777344 32.125 43.847656C 32.195312 43.921875 32.253906 44.007812 32.296875 44.10547C 32.339844 44.19922 32.36328 44.30078 32.36328 44.410156L32.36328 44.410156L32.36328 45.085938L32.15625 45.085938C 32.14453 44.914062 32.10547 44.75 32.035156 44.59375C 31.96875 44.433594 31.882812 44.296875 31.769531 44.183594C 31.660156 44.0625 31.53125 43.96875 31.378906 43.902344C 31.226562 43.828125 31.0625 43.79297 30.882812 43.79297L30.882812 43.79297L30.835938 43.79297C 30.675781 43.79297 30.542969 43.804688 30.441406 43.83203C 30.335938 43.859375 30.253906 43.90625 30.195312 43.96875C 30.132812 44.03125 30.089844 44.11328 30.066406 44.210938C 30.039062 44.3125 30.023438 44.4375 30.023438 44.585938C 30.023438 44.67578 30.035156 44.757812 30.054688 44.835938C 30.074219 44.921875 30.121094 45.003906 30.195312 45.089844C 30.269531 45.17578 30.375 45.26172 30.511719 45.351562C 30.652344 45.441406 30.839844 45.535156 31.074219 45.63672C 31.175781 45.679688 31.28125 45.722656 31.390625 45.765625C 31.5 45.808594 31.613281 45.859375 31.722656 45.914062C 31.835938 45.96875 31.941406 46.03125 32.039062 46.101562C 32.140625 46.171875 32.23047 46.257812 32.3125 46.351562C 32.390625 46.445312 32.453125 46.55078 32.5 46.67578C 32.54297 46.796875 32.566406 46.9375 32.566406 47.097656L32.566406 47.097656L32.566406 47.410156C 32.566406 47.820312 32.472656 48.132812 32.28125 48.347656C 32.089844 48.5625 31.796875 48.66797 31.402344 48.66797L31.402344 48.66797L30.023438 48.66797C 29.917969 48.66797 29.8125 48.648438 29.714844 48.60547C 29.625 48.566406 29.539062 48.507812 29.46875 48.441406C 29.394531 48.367188 29.335938 48.28125 29.296875 48.183594C 29.253906 48.089844 29.234375 47.984375 29.234375 47.878906L29.234375 47.878906L29.234375 46.714844zM33.277344 49.890625L33.277344 44.753906L35.410156 44.753906C 35.51953 44.753906 35.621094 44.773438 35.71875 44.816406C 35.8125 44.859375 35.89453 44.914062 35.964844 44.98828C 36.039062 45.058594 36.097656 45.14453 36.13672 45.242188C 36.179688 45.339844 36.19922 45.441406 36.19922 45.55078L36.19922 45.55078L36.19922 47.878906C 36.19922 47.98828 36.179688 48.09375 36.13672 48.191406C 36.097656 48.289062 36.039062 48.371094 35.964844 48.445312C 35.89453 48.515625 35.8125 48.570312 35.71875 48.61328C 35.621094 48.652344 35.51953 48.67578 35.410156 48.67578L35.410156 48.67578L34.078125 48.67578L34.078125 49.04297C 34.078125 49.203125 34.066406 49.335938 34.04297 49.445312C 34.015625 49.55078 33.96875 49.63672 33.902344 49.703125C 33.839844 49.76953 33.757812 49.816406 33.652344 49.847656C 33.55078 49.875 33.42578 49.890625 33.277344 49.890625zM34.078125 44.9375L34.078125 48.496094L34.609375 48.496094C 34.757812 48.496094 34.882812 48.484375 34.984375 48.45703C 35.085938 48.429688 35.16797 48.382812 35.234375 48.320312C 35.296875 48.26172 35.339844 48.183594 35.367188 48.08203C 35.39453 47.98047 35.410156 47.85547 35.410156 47.70703L35.410156 47.70703L35.410156 45.726562C 35.410156 45.45703 35.359375 45.257812 35.257812 45.128906C 35.164062 45 34.992188 44.9375 34.75 44.9375zM39.246094 45.808594L39.027344 45.808594C 39.01172 45.70703 38.984375 45.609375 38.94922 45.507812C 38.914062 45.40625 38.867188 45.316406 38.8125 45.23828C 38.75 45.15625 38.683594 45.09375 38.609375 45.04297C 38.527344 44.996094 38.4375 44.972656 38.335938 44.972656C 38.19922 44.972656 38.089844 45.023438 38.015625 45.128906C 37.9375 45.23047 37.902344 45.35547 37.902344 45.51172L37.902344 45.51172L37.902344 47.84375C 37.902344 48 37.890625 48.128906 37.86328 48.23047C 37.839844 48.335938 37.796875 48.421875 37.73828 48.48828C 37.67578 48.554688 37.59375 48.597656 37.48828 48.628906C 37.38672 48.65625 37.257812 48.66797 37.101562 48.66797L37.101562 48.66797L37.101562 45.601562C 37.101562 45.445312 37.11328 45.3125 37.140625 45.19922C 37.16797 45.09375 37.214844 45.007812 37.277344 44.941406C 37.339844 44.871094 37.421875 44.82422 37.527344 44.796875C 37.628906 44.765625 37.75 44.753906 37.902344 44.753906L37.902344 44.753906L38.65625 44.753906C 38.777344 44.753906 38.875 44.773438 38.94922 44.816406C 39.027344 44.85547 39.089844 44.90625 39.132812 44.976562C 39.17578 45.046875 39.203125 45.128906 39.222656 45.222656C 39.234375 45.3125 39.242188 45.410156 39.246094 45.51172zM40.5625 46.0625L41.921875 46.0625L41.921875 45.726562C 41.921875 45.441406 41.851562 45.23828 41.71875 45.117188C 41.58203 45 41.375 44.941406 41.09375 44.941406C 40.953125 44.941406 40.83203 44.953125 40.734375 44.976562C 40.632812 45.003906 40.554688 45.05078 40.496094 45.11328C 40.433594 45.179688 40.38672 45.257812 40.359375 45.35547C 40.33203 45.45703 40.320312 45.58203 40.320312 45.726562L40.320312 45.726562L40.320312 45.808594L40.117188 45.808594L40.117188 45.226562C 40.117188 45.121094 40.121094 45.035156 40.125 44.972656C 40.132812 44.910156 40.152344 44.86328 40.179688 44.83203C 40.20703 44.80078 40.246094 44.78125 40.304688 44.773438C 40.359375 44.765625 40.4375 44.757812 40.535156 44.757812L40.535156 44.757812L41.921875 44.757812C 42.015625 44.757812 42.11328 44.78125 42.20703 44.83203C 42.30078 44.875 42.382812 44.9375 42.45703 45.01172C 42.53125 45.085938 42.59375 45.16797 42.63672 45.26172C 42.683594 45.359375 42.70703 45.45703 42.70703 45.554688L42.70703 45.554688L42.70703 47.875C 42.70703 47.98047 42.683594 48.08203 42.64453 48.17578C 42.597656 48.26953 42.539062 48.351562 42.464844 48.42578C 42.39453 48.492188 42.308594 48.55078 42.214844 48.597656C 42.121094 48.63672 42.01953 48.660156 41.921875 48.66797L41.921875 48.66797L40.5625 48.66797C 40.45703 48.66797 40.35547 48.648438 40.26172 48.60547C 40.164062 48.566406 40.08203 48.507812 40.01172 48.441406C 39.9375 48.367188 39.882812 48.28125 39.839844 48.183594C 39.796875 48.089844 39.777344 47.984375 39.777344 47.875L39.777344 47.875L39.777344 46.85547C 39.777344 46.746094 39.796875 46.64453 39.839844 46.546875C 39.882812 46.44922 39.9375 46.367188 40.01172 46.29297C 40.08203 46.222656 40.164062 46.16797 40.26172 46.125C 40.35547 46.085938 40.45703 46.0625 40.5625 46.0625zM41.921875 47.703125L41.921875 46.242188L41.375 46.242188C 41.226562 46.242188 41.097656 46.253906 40.996094 46.28125C 40.89453 46.308594 40.8125 46.351562 40.746094 46.414062C 40.683594 46.476562 40.63672 46.554688 40.609375 46.65625C 40.578125 46.757812 40.5625 46.878906 40.5625 47.027344L40.5625 47.027344L40.5625 47.703125C 40.5625 47.835938 40.57422 47.953125 40.597656 48.046875C 40.625 48.13672 40.660156 48.21875 40.714844 48.285156C 40.765625 48.347656 40.83203 48.39453 40.91797 48.42578C 41.003906 48.460938 41.10547 48.48047 41.222656 48.492188C 41.351562 48.48047 41.460938 48.460938 41.55078 48.429688C 41.63672 48.398438 41.70703 48.351562 41.765625 48.289062C 41.820312 48.226562 41.859375 48.148438 41.882812 48.05078C 41.90625 47.953125 41.921875 47.835938 41.921875 47.703125zM43.60547 49.039062L43.8125 49.039062C 43.82422 49.148438 43.84375 49.242188 43.878906 49.320312C 43.914062 49.39453 43.964844 49.45703 44.03125 49.507812C 44.09375 49.554688 44.171875 49.589844 44.26953 49.609375C 44.367188 49.628906 44.484375 49.640625 44.617188 49.640625L44.617188 49.640625L44.945312 49.640625C 45.195312 49.640625 45.38672 49.601562 45.523438 49.523438C 45.660156 49.441406 45.73047 49.30078 45.73047 49.09375L45.73047 49.09375L45.73047 48.66797L44.351562 48.66797C 44.25 48.66797 44.152344 48.648438 44.0625 48.60547C 43.96875 48.566406 43.890625 48.507812 43.82422 48.433594C 43.753906 48.36328 43.69922 48.277344 43.660156 48.183594C 43.625 48.089844 43.60547 47.98828 43.60547 47.882812L43.60547 47.882812L43.60547 45.54297C 43.60547 45.4375 43.621094 45.335938 43.65625 45.23828C 43.695312 45.14453 43.746094 45.058594 43.8125 44.98828C 43.878906 44.914062 43.95703 44.859375 44.05078 44.816406C 44.14453 44.773438 44.246094 44.753906 44.351562 44.753906L44.351562 44.753906L46.54297 44.753906L46.54297 49.09375C 46.54297 49.23047 46.523438 49.34375 46.492188 49.433594C 46.45703 49.527344 46.402344 49.601562 46.335938 49.65625C 46.265625 49.714844 46.179688 49.757812 46.078125 49.78125C 45.976562 49.804688 45.859375 49.816406 45.73047 49.816406L45.73047 49.816406L44.351562 49.816406C 44.1875 49.816406 44.054688 49.79297 43.95703 49.73828C 43.859375 49.683594 43.78125 49.617188 43.73047 49.54297C 43.67578 49.460938 43.64453 49.378906 43.628906 49.289062C 43.61328 49.19922 43.60547 49.11328 43.60547 49.039062zM45.066406 48.492188C 45.308594 48.492188 45.48047 48.429688 45.58203 48.30078C 45.679688 48.17578 45.73047 47.98047 45.73047 47.710938L45.73047 47.710938L45.73047 44.929688L45.19922 44.929688C 45.05078 44.929688 44.92578 44.945312 44.828125 44.972656C 44.722656 45 44.63672 45.04297 44.570312 45.10547C 44.507812 45.16797 44.464844 45.25 44.4375 45.351562C 44.410156 45.453125 44.39453 45.578125 44.39453 45.726562L44.39453 45.726562L44.39453 47.710938C 44.39453 47.98047 44.445312 48.17578 44.546875 48.30078C 44.64453 48.429688 44.820312 48.492188 45.066406 48.492188zM47.441406 49.039062L47.648438 49.039062C 47.660156 49.148438 47.683594 49.242188 47.71875 49.320312C 47.753906 49.39453 47.804688 49.45703 47.867188 49.507812C 47.933594 49.554688 48.015625 49.589844 48.11328 49.609375C 48.210938 49.628906 48.32422 49.640625 48.45703 49.640625L48.45703 49.640625L48.785156 49.640625C 49.03125 49.640625 49.226562 49.601562 49.367188 49.523438C 49.5 49.441406 49.570312 49.30078 49.570312 49.09375L49.570312 49.09375L49.570312 48.66797L48.191406 48.66797C 48.085938 48.66797 47.98828 48.648438 47.898438 48.60547C 47.808594 48.566406 47.73047 48.507812 47.660156 48.433594C 47.59375 48.36328 47.539062 48.277344 47.5 48.183594C 47.460938 48.089844 47.441406 47.98828 47.441406 47.882812L47.441406 47.882812L47.441406 45.54297C 47.441406 45.4375 47.460938 45.335938 47.5 45.23828C 47.535156 45.14453 47.585938 45.058594 47.648438 44.98828C 47.71875 44.914062 47.80078 44.859375 47.890625 44.816406C 47.984375 44.773438 48.08203 44.753906 48.191406 44.753906L48.191406 44.753906L50.378906 44.753906L50.378906 49.09375C 50.378906 49.23047 50.36328 49.34375 50.328125 49.433594C 50.29297 49.527344 50.242188 49.601562 50.171875 49.65625C 50.101562 49.714844 50.015625 49.757812 49.91797 49.78125C 49.8125 49.804688 49.695312 49.816406 49.570312 49.816406L49.570312 49.816406L48.191406 49.816406C 48.023438 49.816406 47.89453 49.79297 47.796875 49.73828C 47.69922 49.683594 47.625 49.617188 47.570312 49.54297C 47.51953 49.460938 47.484375 49.378906 47.46875 49.289062C 47.44922 49.19922 47.441406 49.11328 47.441406 49.039062zM48.902344 48.492188C 49.14453 48.492188 49.316406 48.429688 49.41797 48.30078C 49.51953 48.17578 49.570312 47.98047 49.570312 47.710938L49.570312 47.710938L49.570312 44.929688L49.04297 44.929688C 48.89453 44.929688 48.76953 44.945312 48.664062 44.972656C 48.558594 45 48.476562 45.04297 48.414062 45.10547C 48.347656 45.16797 48.30078 45.25 48.273438 45.351562C 48.246094 45.453125 48.23047 45.578125 48.23047 45.726562L48.23047 45.726562L48.23047 47.710938C 48.23047 47.98047 48.28125 48.17578 48.382812 48.30078C 48.48828 48.429688 48.660156 48.492188 48.902344 48.492188zM51.691406 43.441406C 51.75 43.441406 51.804688 43.45703 51.86328 43.48047C 51.91797 43.503906 51.964844 43.535156 52.003906 43.578125C 52.04297 43.617188 52.078125 43.664062 52.101562 43.71875C 52.121094 43.773438 52.132812 43.83203 52.132812 43.89453C 52.132812 43.953125 52.121094 44.01172 52.101562 44.066406C 52.078125 44.125 52.04297 44.17578 52.003906 44.210938C 51.964844 44.253906 51.91797 44.289062 51.86328 44.316406C 51.804688 44.339844 51.75 44.351562 51.691406 44.351562C 51.628906 44.351562 51.570312 44.339844 51.51172 44.316406C 51.460938 44.289062 51.414062 44.253906 51.371094 44.210938C 51.33203 44.17578 51.296875 44.125 51.273438 44.066406C 51.246094 44.01172 51.234375 43.953125 51.234375 43.89453C 51.234375 43.835938 51.246094 43.78125 51.273438 43.722656C 51.296875 43.66797 51.33203 43.621094 51.371094 43.578125C 51.414062 43.535156 51.460938 43.503906 51.51172 43.48047C 51.570312 43.45703 51.628906 43.441406 51.691406 43.441406zM52.085938 44.691406L52.085938 47.847656C 52.085938 48 52.07422 48.128906 52.05078 48.23828C 52.023438 48.339844 51.98047 48.42578 51.91797 48.492188C 51.859375 48.554688 51.777344 48.597656 51.67578 48.628906C 51.570312 48.65625 51.441406 48.66797 51.285156 48.66797L51.285156 48.66797L51.285156 45.539062C 51.285156 45.378906 51.296875 45.246094 51.32422 45.13672C 51.35547 45.03125 51.402344 44.945312 51.464844 44.878906C 51.527344 44.8125 51.609375 44.765625 51.710938 44.734375C 51.8125 44.70703 51.9375 44.691406 52.085938 44.691406zM55.121094 44.753906C 55.226562 44.753906 55.328125 44.773438 55.421875 44.816406C 55.51953 44.859375 55.60547 44.914062 55.683594 44.98828C 55.757812 45.058594 55.816406 45.14453 55.859375 45.242188C 55.902344 45.339844 55.921875 45.441406 55.921875 45.55078L55.921875 45.55078L55.921875 47.835938C 55.921875 47.992188 55.910156 48.125 55.88672 48.23047C 55.86328 48.335938 55.820312 48.421875 55.757812 48.48828C 55.695312 48.554688 55.617188 48.597656 55.51172 48.628906C 55.40625 48.65625 55.277344 48.66797 55.121094 48.66797L55.121094 48.66797L55.121094 45.722656C 55.121094 45.445312 55.066406 45.246094 54.960938 45.121094C 54.85547 44.996094 54.691406 44.9375 54.460938 44.9375L54.460938 44.9375L53.796875 44.9375L53.796875 47.835938C 53.796875 47.992188 53.785156 48.125 53.757812 48.23047C 53.734375 48.335938 53.691406 48.421875 53.628906 48.48828C 53.566406 48.554688 53.484375 48.597656 53.378906 48.628906C 53.277344 48.65625 53.14453 48.66797 52.98828 48.66797L52.98828 48.66797L52.98828 44.753906zM57.61328 44.753906L58.871094 44.753906C 59.04297 44.753906 59.179688 44.78125 59.277344 44.83203C 59.375 44.88672 59.445312 44.953125 59.48828 45.035156C 59.535156 45.11328 59.558594 45.19922 59.566406 45.289062C 59.578125 45.378906 59.58203 45.464844 59.58203 45.54297L59.58203 45.54297L59.58203 45.804688L59.36328 45.804688C 59.34375 45.67578 59.308594 45.558594 59.26172 45.45703C 59.20703 45.347656 59.140625 45.257812 59.058594 45.179688C 58.976562 45.10547 58.882812 45.04297 58.773438 44.996094C 58.660156 44.953125 58.539062 44.929688 58.402344 44.929688L58.402344 44.929688L58.19922 44.929688C 58.054688 44.929688 57.933594 44.941406 57.835938 44.96875C 57.73828 44.992188 57.660156 45.03125 57.601562 45.085938C 57.54297 45.13672 57.5 45.210938 57.476562 45.30078C 57.453125 45.390625 57.441406 45.5 57.441406 45.632812C 57.441406 45.734375 57.46875 45.820312 57.527344 45.890625C 57.589844 45.964844 57.66797 46.027344 57.76172 46.085938C 57.859375 46.140625 57.96875 46.1875 58.089844 46.23047C 58.214844 46.273438 58.34375 46.316406 58.476562 46.351562C 58.60547 46.382812 58.73828 46.41797 58.867188 46.453125C 58.992188 46.48828 59.11328 46.527344 59.21875 46.566406C 59.296875 46.597656 59.367188 46.632812 59.433594 46.683594C 59.496094 46.73047 59.55078 46.789062 59.597656 46.85547C 59.648438 46.921875 59.683594 46.992188 59.714844 47.066406C 59.73828 47.148438 59.75 47.23047 59.75 47.3125L59.75 47.3125L59.75 47.878906C 59.75 47.984375 59.73047 48.089844 59.6875 48.183594C 59.64453 48.28125 59.589844 48.367188 59.51953 48.441406C 59.44922 48.507812 59.36328 48.566406 59.265625 48.60547C 59.16797 48.648438 59.066406 48.66797 58.953125 48.66797L58.953125 48.66797L57.83203 48.66797C 57.652344 48.66797 57.496094 48.652344 57.367188 48.621094C 57.23828 48.585938 57.13672 48.53125 57.054688 48.45703C 56.976562 48.378906 56.91797 48.28125 56.878906 48.160156C 56.839844 48.035156 56.820312 47.882812 56.820312 47.70703L56.820312 47.70703L56.820312 47.36328L57.023438 47.36328L57.023438 47.70703C 57.023438 47.85547 57.039062 47.98047 57.066406 48.08203C 57.09375 48.183594 57.140625 48.26172 57.20703 48.320312C 57.26953 48.382812 57.351562 48.429688 57.453125 48.45703C 57.55078 48.48047 57.679688 48.492188 57.83203 48.492188L57.83203 48.492188L58.32422 48.492188C 58.472656 48.492188 58.597656 48.484375 58.69922 48.464844C 58.80078 48.44922 58.882812 48.414062 58.94922 48.36328C 59.01172 48.308594 59.054688 48.23828 59.08203 48.148438C 59.109375 48.058594 59.121094 47.941406 59.121094 47.796875L59.121094 47.796875L59.121094 47.703125C 59.121094 47.58203 59.085938 47.48828 59.01953 47.414062C 58.95703 47.339844 58.867188 47.277344 58.76172 47.222656C 58.652344 47.17578 58.53125 47.132812 58.390625 47.097656C 58.257812 47.0625 58.117188 47.027344 57.972656 46.98828C 57.828125 46.94922 57.6875 46.902344 57.55078 46.85547C 57.414062 46.804688 57.29297 46.73828 57.179688 46.65625C 57.07422 46.578125 56.98828 46.476562 56.921875 46.35547C 56.85547 46.234375 56.820312 46.085938 56.820312 45.90625L56.820312 45.90625L56.820312 45.54297C 56.820312 45.433594 56.84375 45.33203 56.882812 45.23828C 56.92578 45.140625 56.984375 45.054688 57.054688 44.98047C 57.125 44.914062 57.20703 44.859375 57.304688 44.816406C 57.398438 44.773438 57.5 44.753906 57.61328 44.753906zM64.77344 43.796875L63.375 43.796875L63.375 48.492188L64.77344 48.492188C 64.88281 48.48047 64.97656 48.460938 65.05469 48.42578C 65.12891 48.390625 65.19141 48.339844 65.23828 48.277344C 65.28906 48.214844 65.32422 48.13672 65.34375 48.046875C 65.36719 47.953125 65.37891 47.839844 65.37891 47.710938L65.37891 47.710938L65.37891 44.578125C 65.37891 44.316406 65.33203 44.121094 65.23828 43.996094C 65.14844 43.86328 64.99219 43.796875 64.77344 43.796875zM62.5625 48.66797L62.5625 44.089844C 62.5625 43.976562 62.5625 43.890625 62.566406 43.828125C 62.570312 43.765625 62.585938 43.71875 62.609375 43.6875C 62.63672 43.65625 62.679688 43.63672 62.734375 43.628906C 62.79297 43.621094 62.875 43.61328 62.984375 43.61328L62.984375 43.61328L65.37891 43.61328C 65.48828 43.61328 65.58984 43.63672 65.6875 43.683594C 65.78906 43.722656 65.875 43.78125 65.94531 43.85547C 66.01953 43.92578 66.078125 44.01172 66.11719 44.109375C 66.16406 44.20703 66.1875 44.308594 66.1875 44.414062L66.1875 44.414062L66.1875 47.875C 66.1875 47.98047 66.16406 48.08203 66.11719 48.179688C 66.078125 48.277344 66.01953 48.36328 65.94531 48.433594C 65.875 48.507812 65.78906 48.566406 65.6875 48.60547C 65.58984 48.648438 65.48828 48.66797 65.37891 48.66797zM68.546875 44.941406C 68.296875 44.941406 68.12109 45 68.02344 45.121094C 67.921875 45.246094 67.87109 45.445312 67.87109 45.714844L67.87109 45.714844L67.87109 46.054688L69.21875 46.054688L69.21875 45.714844C 69.21875 45.58203 69.20703 45.464844 69.1875 45.367188C 69.16406 45.26953 69.12109 45.1875 69.06641 45.121094C 69.015625 45.058594 68.94531 45.01172 68.859375 44.98047C 68.77734 44.953125 68.671875 44.941406 68.546875 44.941406zM70.00781 46.23047L67.87109 46.23047L67.87109 47.70703C 67.87109 47.85547 67.88672 47.98047 67.91406 48.08203C 67.94141 48.183594 67.984375 48.26172 68.046875 48.32422C 68.109375 48.38672 68.19531 48.433594 68.296875 48.460938C 68.40234 48.48828 68.52734 48.503906 68.67578 48.503906L68.67578 48.503906L68.71484 48.503906C 68.86328 48.503906 68.98828 48.48828 69.09375 48.460938C 69.19531 48.433594 69.27734 48.38672 69.34375 48.32422C 69.40625 48.26172 69.44922 48.183594 69.47656 48.08203C 69.50391 47.98047 69.51953 47.85547 69.51953 47.70703L69.51953 47.70703L69.51953 47.367188L69.72266 47.367188L69.72266 47.882812C 69.72266 47.960938 69.71484 48.046875 69.69531 48.13672C 69.67969 48.23047 69.64453 48.3125 69.59375 48.39453C 69.53516 48.472656 69.45703 48.539062 69.35156 48.589844C 69.25 48.64453 69.109375 48.66797 68.93359 48.66797L68.93359 48.66797L67.87109 48.66797C 67.77344 48.66797 67.67969 48.64453 67.58594 48.601562C 67.49219 48.554688 67.41016 48.496094 67.33594 48.42578C 67.25781 48.347656 67.19922 48.26172 67.15234 48.16797C 67.109375 48.07422 67.08594 47.98047 67.08594 47.882812L67.08594 47.882812L67.08594 45.54297C 67.08594 45.441406 67.10547 45.339844 67.14844 45.246094C 67.19141 45.152344 67.24609 45.07422 67.32031 45.003906C 67.39453 44.929688 67.48047 44.875 67.57422 44.83203C 67.66797 44.785156 67.765625 44.76172 67.87109 44.753906L67.87109 44.753906L69.21875 44.753906C 69.328125 44.753906 69.43359 44.773438 69.53125 44.816406C 69.625 44.859375 69.70703 44.914062 69.78125 44.98828C 69.84766 45.058594 69.90234 45.14453 69.94531 45.23828C 69.98828 45.335938 70.00781 45.4375 70.00781 45.54297zM71.51172 44.753906L72.76953 44.753906C 72.94141 44.753906 73.078125 44.78125 73.17578 44.83203C 73.27344 44.88672 73.34375 44.953125 73.38672 45.035156C 73.43359 45.11328 73.45703 45.19922 73.46484 45.289062C 73.47266 45.378906 73.47656 45.464844 73.47656 45.54297L73.47656 45.54297L73.47656 45.804688L73.26172 45.804688C 73.24219 45.67578 73.20703 45.558594 73.16016 45.45703C 73.10547 45.347656 73.03906 45.257812 72.95703 45.179688C 72.875 45.10547 72.78125 45.04297 72.671875 44.996094C 72.55859 44.953125 72.4375 44.929688 72.30078 44.929688L72.30078 44.929688L72.09766 44.929688C 71.953125 44.929688 71.83203 44.941406 71.734375 44.96875C 71.63672 44.992188 71.55859 45.03125 71.5 45.085938C 71.44141 45.13672 71.39844 45.210938 71.375 45.30078C 71.35156 45.390625 71.33984 45.5 71.33984 45.632812C 71.33984 45.734375 71.36719 45.820312 71.42578 45.890625C 71.484375 45.964844 71.55859 46.027344 71.65625 46.085938C 71.75391 46.140625 71.86328 46.1875 71.98828 46.23047C 72.11328 46.273438 72.24219 46.316406 72.375 46.351562C 72.50391 46.382812 72.63672 46.41797 72.765625 46.453125C 72.890625 46.48828 73.01172 46.527344 73.11719 46.566406C 73.19531 46.597656 73.26172 46.632812 73.32422 46.683594C 73.390625 46.73047 73.44922 46.789062 73.49609 46.85547C 73.546875 46.921875 73.58203 46.992188 73.60547 47.066406C 73.63281 47.148438 73.64844 47.23047 73.64844 47.3125L73.64844 47.3125L73.64844 47.878906C 73.64844 47.984375 73.62891 48.089844 73.58594 48.183594C 73.54297 48.28125 73.48828 48.367188 73.41406 48.441406C 73.34375 48.507812 73.26172 48.566406 73.16406 48.60547C 73.06641 48.648438 72.96484 48.66797 72.85156 48.66797L72.85156 48.66797L71.72266 48.66797C 71.546875 48.66797 71.39453 48.652344 71.265625 48.621094C 71.13672 48.585938 71.03516 48.53125 70.953125 48.45703C 70.875 48.378906 70.81641 48.28125 70.77734 48.160156C 70.73828 48.035156 70.71875 47.882812 70.71875 47.70703L70.71875 47.70703L70.71875 47.36328L70.921875 47.36328L70.921875 47.70703C 70.921875 47.85547 70.9375 47.98047 70.96484 48.08203C 70.99219 48.183594 71.03906 48.26172 71.10156 48.320312C 71.16406 48.382812 71.25 48.429688 71.34766 48.45703C 71.44922 48.48047 71.57422 48.492188 71.72266 48.492188L71.72266 48.492188L72.21875 48.492188C 72.36719 48.492188 72.49219 48.484375 72.59766 48.464844C 72.69922 48.44922 72.78125 48.414062 72.84375 48.36328C 72.90625 48.308594 72.953125 48.23828 72.97656 48.148438C 73.00391 48.058594 73.01953 47.941406 73.01953 47.796875L73.01953 47.796875L73.01953 47.703125C 73.01953 47.58203 72.984375 47.48828 72.91797 47.414062C 72.85547 47.339844 72.765625 47.277344 72.66016 47.222656C 72.55078 47.17578 72.42969 47.132812 72.28906 47.097656C 72.15234 47.0625 72.01172 47.027344 71.87109 46.98828C 71.72656 46.94922 71.58594 46.902344 71.44922 46.85547C 71.30859 46.804688 71.1875 46.73828 71.078125 46.65625C 70.97266 46.578125 70.88672 46.476562 70.82031 46.35547C 70.75391 46.234375 70.71875 46.085938 70.71875 45.90625L70.71875 45.90625L70.71875 45.54297C 70.71875 45.433594 70.74219 45.33203 70.78125 45.23828C 70.82422 45.140625 70.87891 45.054688 70.94922 44.98047C 71.02344 44.914062 71.10547 44.859375 71.203125 44.816406C 71.296875 44.773438 71.39844 44.753906 71.51172 44.753906zM74.76953 43.441406C 74.828125 43.441406 74.88672 43.45703 74.9375 43.48047C 74.99219 43.503906 75.04297 43.535156 75.08203 43.578125C 75.12109 43.617188 75.15234 43.664062 75.17578 43.71875C 75.19922 43.773438 75.21094 43.83203 75.21094 43.89453C 75.21094 43.953125 75.19922 44.01172 75.17578 44.066406C 75.15234 44.125 75.12109 44.17578 75.08203 44.210938C 75.04297 44.253906 74.99219 44.289062 74.9375 44.316406C 74.88672 44.339844 74.828125 44.351562 74.76953 44.351562C 74.70703 44.351562 74.64844 44.339844 74.59375 44.316406C 74.53906 44.289062 74.48828 44.253906 74.44922 44.210938C 74.40625 44.17578 74.375 44.125 74.35156 44.066406C 74.32422 44.01172 74.3125 43.953125 74.3125 43.89453C 74.3125 43.835938 74.32422 43.78125 74.35156 43.722656C 74.375 43.66797 74.40625 43.621094 74.44922 43.578125C 74.48828 43.535156 74.53906 43.503906 74.59375 43.48047C 74.64844 43.45703 74.70703 43.441406 74.76953 43.441406zM75.16016 44.691406L75.16016 47.847656C 75.16016 48 75.14844 48.128906 75.125 48.23828C 75.10156 48.339844 75.05859 48.42578 75 48.492188C 74.9375 48.554688 74.85547 48.597656 74.75 48.628906C 74.64844 48.65625 74.51953 48.66797 74.36719 48.66797L74.36719 48.66797L74.36719 45.539062C 74.36719 45.378906 74.37891 45.246094 74.40625 45.13672C 74.43359 45.03125 74.48047 44.945312 74.54297 44.878906C 74.60547 44.8125 74.6875 44.765625 74.79297 44.734375C 74.890625 44.70703 75.015625 44.691406 75.16016 44.691406zM76.06641 49.039062L76.27344 49.039062C 76.28516 49.148438 76.30469 49.242188 76.33984 49.320312C 76.37891 49.39453 76.42969 49.45703 76.49219 49.507812C 76.55859 49.554688 76.640625 49.589844 76.734375 49.609375C 76.83203 49.628906 76.94922 49.640625 77.078125 49.640625L77.078125 49.640625L77.40625 49.640625C 77.65625 49.640625 77.85156 49.601562 77.98828 49.523438C 78.125 49.441406 78.19141 49.30078 78.19141 49.09375L78.19141 49.09375L78.19141 48.66797L76.8125 48.66797C 76.71094 48.66797 76.61328 48.648438 76.52344 48.60547C 76.43359 48.566406 76.35156 48.507812 76.28516 48.433594C 76.21875 48.36328 76.16406 48.277344 76.12109 48.183594C 76.08594 48.089844 76.06641 47.98828 76.06641 47.882812L76.06641 47.882812L76.06641 45.54297C 76.06641 45.4375 76.08594 45.335938 76.12109 45.23828C 76.15625 45.14453 76.20703 45.058594 76.27344 44.98828C 76.34375 44.914062 76.421875 44.859375 76.51172 44.816406C 76.60547 44.773438 76.70703 44.753906 76.8125 44.753906L76.8125 44.753906L79.00391 44.753906L79.00391 49.09375C 79.00391 49.23047 78.984375 49.34375 78.953125 49.433594C 78.91797 49.527344 78.86328 49.601562 78.796875 49.65625C 78.72656 49.714844 78.640625 49.757812 78.53906 49.78125C 78.4375 49.804688 78.32031 49.816406 78.19141 49.816406L78.19141 49.816406L76.8125 49.816406C 76.64844 49.816406 76.515625 49.79297 76.41797 49.73828C 76.32031 49.683594 76.24609 49.617188 76.19531 49.54297C 76.14453 49.460938 76.109375 49.378906 76.08984 49.289062C 76.07422 49.19922 76.06641 49.11328 76.06641 49.039062zM77.52734 48.492188C 77.76953 48.492188 77.94141 48.429688 78.04297 48.30078C 78.140625 48.17578 78.19141 47.98047 78.19141 47.710938L78.19141 47.710938L78.19141 44.929688L77.66797 44.929688C 77.51953 44.929688 77.390625 44.945312 77.28906 44.972656C 77.18359 45 77.10156 45.04297 77.03906 45.10547C 76.97266 45.16797 76.92578 45.25 76.89844 45.351562C 76.87109 45.453125 76.85547 45.578125 76.85547 45.726562L76.85547 45.726562L76.85547 47.710938C 76.85547 47.98047 76.90625 48.17578 77.00781 48.30078C 77.109375 48.429688 77.28516 48.492188 77.52734 48.492188zM82.03906 44.753906C 82.14453 44.753906 82.24609 44.773438 82.33984 44.816406C 82.4375 44.859375 82.52344 44.914062 82.60156 44.98828C 82.67578 45.058594 82.73047 45.14453 82.77344 45.242188C 82.81641 45.339844 82.83984 45.441406 82.83984 45.55078L82.83984 45.55078L82.83984 47.835938C 82.83984 47.992188 82.828125 48.125 82.80469 48.23047C 82.78125 48.335938 82.73828 48.421875 82.67578 48.48828C 82.61719 48.554688 82.53516 48.597656 82.42969 48.628906C 82.32422 48.65625 82.19531 48.66797 82.03906 48.66797L82.03906 48.66797L82.03906 45.722656C 82.03906 45.445312 81.984375 45.246094 81.87891 45.121094C 81.77344 44.996094 81.60547 44.9375 81.375 44.9375L81.375 44.9375L80.71484 44.9375L80.71484 47.835938C 80.71484 47.992188 80.703125 48.125 80.67578 48.23047C 80.65234 48.335938 80.609375 48.421875 80.546875 48.48828C 80.484375 48.554688 80.40234 48.597656 80.296875 48.628906C 80.19141 48.65625 80.05859 48.66797 79.90234 48.66797L79.90234 48.66797L79.90234 44.753906zM84.53125 44.753906L85.78906 44.753906C 85.96094 44.753906 86.09766 44.78125 86.19531 44.83203C 86.29297 44.88672 86.36328 44.953125 86.40625 45.035156C 86.453125 45.11328 86.48047 45.19922 86.484375 45.289062C 86.49219 45.378906 86.49609 45.464844 86.49609 45.54297L86.49609 45.54297L86.49609 45.804688L86.28125 45.804688C 86.26172 45.67578 86.22656 45.558594 86.17969 45.45703C 86.125 45.347656 86.05859 45.257812 85.97656 45.179688C 85.89453 45.10547 85.80078 45.04297 85.69141 44.996094C 85.578125 44.953125 85.45703 44.929688 85.32031 44.929688L85.32031 44.929688L85.11719 44.929688C 84.97266 44.929688 84.85156 44.941406 84.75391 44.96875C 84.65625 44.992188 84.578125 45.03125 84.51953 45.085938C 84.46094 45.13672 84.41797 45.210938 84.39453 45.30078C 84.37109 45.390625 84.359375 45.5 84.359375 45.632812C 84.359375 45.734375 84.38672 45.820312 84.44922 45.890625C 84.50391 45.964844 84.578125 46.027344 84.67578 46.085938C 84.77344 46.140625 84.88281 46.1875 85.00781 46.23047C 85.13281 46.273438 85.26172 46.316406 85.39453 46.351562C 85.52344 46.382812 85.65625 46.41797 85.78516 46.453125C 85.91016 46.48828 86.03125 46.527344 86.13672 46.566406C 86.21484 46.597656 86.28125 46.632812 86.34375 46.683594C 86.41016 46.73047 86.46875 46.789062 86.515625 46.85547C 86.56641 46.921875 86.60156 46.992188 86.625 47.066406C 86.65234 47.148438 86.66797 47.23047 86.66797 47.3125L86.66797 47.3125L86.66797 47.878906C 86.66797 47.984375 86.64844 48.089844 86.60547 48.183594C 86.5625 48.28125 86.50781 48.367188 86.43359 48.441406C 86.36328 48.507812 86.28125 48.566406 86.18359 48.60547C 86.08594 48.648438 85.984375 48.66797 85.87109 48.66797L85.87109 48.66797L84.74219 48.66797C 84.56641 48.66797 84.41406 48.652344 84.28516 48.621094C 84.15625 48.585938 84.05469 48.53125 83.97266 48.45703C 83.89453 48.378906 83.83594 48.28125 83.796875 48.160156C 83.75781 48.035156 83.73828 47.882812 83.73828 47.70703L83.73828 47.70703L83.73828 47.36328L83.94141 47.36328L83.94141 47.70703C 83.94141 47.85547 83.95703 47.98047 83.984375 48.08203C 84.01172 48.183594 84.05859 48.26172 84.12109 48.320312C 84.1875 48.382812 84.26953 48.429688 84.37109 48.45703C 84.46875 48.48047 84.59375 48.492188 84.74219 48.492188L84.74219 48.492188L85.23828 48.492188C 85.38672 48.492188 85.51172 48.484375 85.61719 48.464844C 85.71875 48.44922 85.80078 48.414062 85.86328 48.36328C 85.92578 48.308594 85.97266 48.23828 85.99609 48.148438C 86.02344 48.058594 86.03906 47.941406 86.03906 47.796875L86.03906 47.796875L86.03906 47.703125C 86.03906 47.58203 86.00391 47.48828 85.94141 47.414062C 85.875 47.339844 85.78516 47.277344 85.67969 47.222656C 85.57031 47.17578 85.44922 47.132812 85.30859 47.097656C 85.171875 47.0625 85.03125 47.027344 84.890625 46.98828C 84.74609 46.94922 84.60547 46.902344 84.46875 46.85547C 84.328125 46.804688 84.20703 46.73828 84.09766 46.65625C 83.99219 46.578125 83.90625 46.476562 83.83984 46.35547C 83.77344 46.234375 83.73828 46.085938 83.73828 45.90625L83.73828 45.90625L83.73828 45.54297C 83.73828 45.433594 83.76172 45.33203 83.80078 45.23828C 83.84375 45.140625 83.89844 45.054688 83.96875 44.98047C 84.04297 44.914062 84.125 44.859375 84.22266 44.816406C 84.31641 44.773438 84.41797 44.753906 84.53125 44.753906z" stroke="none" fill="#D1A103" fill-rule="nonzero" />
	<g>
	</g>
    <path d="M13.332031 43.992188L15.933594 57.476562L15.035156 48.44922L19.472656 48.160156L19.464844 46.648438L21.214844 42.523438L19.542969 45.273438L13.332031 43.992188z" stroke="none" fill="#D1A103" fill-rule="nonzero" />
	<g>
	</g>
    <path d="M20.425781 50.710938L21.214844 42.527344L19.878906 48.597656L16.882812 48.757812L17.121094 51.882812L15.933594 57.476562L17.777344 51.375L20.425781 50.710938z" stroke="none" fill="#D1A103" fill-rule="nonzero" />
	<g>
	</g>
    <path d="M20.945312 52.640625L21.03125 51.04297L18.589844 51.617188L18.582031 53.41797L15.933594 57.476562L19.246094 53.253906L20.945312 52.640625zM21.390625 51.910156L23.660156 51.183594L23.890625 49.26953L21.460938 49.589844zM22.363281 49.17578L24.042969 48.95703L24.285156 47.38672L23.050781 47.328125L21.214844 42.523438L22.503906 47.257812z" stroke="none" fill="#D1A103" fill-rule="nonzero" />
	<g>
	</g>
    <path d="M24.707031 47.15625L24.902344 45.703125L23.441406 45.289062L21.214844 42.523438L23.429688 45.953125L23.363281 47.023438L24.707031 47.15625z" stroke="none" fill="#D1A103" fill-rule="nonzero" />
	<g>
	</g>
    <path d="M29.996094 53.46875C 30.238281 53.46875 30.429688 53.527344 30.570312 53.648438C 30.710938 53.765625 30.78125 53.933594 30.78125 54.140625C 30.78125 54.351562 30.710938 54.515625 30.570312 54.640625C 30.429688 54.76172 30.238281 54.820312 29.996094 54.820312L29.996094 54.820312L29.410156 54.820312L29.410156 55.773438L29.234375 55.773438L29.234375 53.46875L29.996094 53.46875zM29.976562 54.65625C 30.175781 54.65625 30.332031 54.61328 30.4375 54.523438C 30.542969 54.4375 30.597656 54.308594 30.597656 54.140625C 30.597656 53.98047 30.542969 53.851562 30.4375 53.76172C 30.332031 53.671875 30.175781 53.628906 29.976562 53.628906L29.976562 53.628906L29.410156 53.628906L29.410156 54.65625zM34.375 55.660156C 34.433594 55.660156 34.48047 55.652344 34.515625 55.63672L34.515625 55.63672L34.503906 55.773438C 34.460938 55.796875 34.40625 55.808594 34.33203 55.808594C 34.25 55.808594 34.183594 55.789062 34.132812 55.742188C 34.08203 55.69922 34.054688 55.621094 34.04297 55.51172C 33.992188 55.60547 33.90625 55.679688 33.789062 55.73047C 33.66797 55.78125 33.54297 55.808594 33.414062 55.808594C 33.23828 55.808594 33.101562 55.76953 33 55.695312C 32.89453 55.617188 32.84375 55.507812 32.84375 55.367188C 32.84375 55.09375 33.066406 54.921875 33.507812 54.839844L33.507812 54.839844L34.04297 54.746094L34.04297 54.59375C 34.04297 54.453125 34 54.34375 33.91797 54.265625C 33.835938 54.1875 33.71875 54.148438 33.566406 54.148438C 33.289062 54.148438 33.101562 54.26953 33.007812 54.515625L33.007812 54.515625L32.875 54.41797C 32.92578 54.28125 33.01172 54.17578 33.132812 54.101562C 33.25 54.027344 33.39453 53.992188 33.566406 53.992188C 33.76953 53.992188 33.929688 54.04297 34.04297 54.140625C 34.160156 54.23828 34.21875 54.382812 34.21875 54.570312L34.21875 54.570312L34.21875 55.476562C 34.21875 55.597656 34.26953 55.660156 34.375 55.660156zM33.429688 55.65625C 33.527344 55.65625 33.625 55.63672 33.71875 55.60547C 33.8125 55.570312 33.88672 55.523438 33.94922 55.45703C 34.01172 55.38672 34.04297 55.308594 34.04297 55.214844L34.04297 55.214844L34.04297 54.890625L33.5625 54.976562C 33.375 55.01172 33.23828 55.0625 33.152344 55.125C 33.0625 55.1875 33.01953 55.265625 33.01953 55.367188C 33.01953 55.45703 33.058594 55.53125 33.132812 55.578125C 33.203125 55.628906 33.30078 55.65625 33.429688 55.65625zM37.1875 55.808594C 37.01172 55.808594 36.859375 55.773438 36.726562 55.703125C 36.597656 55.63672 36.507812 55.535156 36.45703 55.398438L36.45703 55.398438L36.601562 55.304688C 36.63672 55.421875 36.70703 55.507812 36.8125 55.566406C 36.921875 55.625 37.054688 55.65625 37.20703 55.65625C 37.367188 55.65625 37.492188 55.625 37.58203 55.566406C 37.671875 55.503906 37.714844 55.42578 37.714844 55.32422C 37.714844 55.23828 37.67578 55.16797 37.601562 55.117188C 37.523438 55.066406 37.38672 55.023438 37.195312 54.98828C 36.94922 54.941406 36.777344 54.882812 36.679688 54.8125C 36.578125 54.734375 36.527344 54.628906 36.527344 54.492188C 36.527344 54.402344 36.554688 54.316406 36.609375 54.23828C 36.66797 54.164062 36.746094 54.101562 36.847656 54.058594C 36.953125 54.015625 37.066406 53.992188 37.19922 53.992188C 37.382812 53.992188 37.53125 54.027344 37.640625 54.097656C 37.75 54.16797 37.828125 54.273438 37.871094 54.41797L37.871094 54.41797L37.71875 54.507812C 37.65625 54.265625 37.48047 54.148438 37.19922 54.148438C 37.10547 54.148438 37.01953 54.160156 36.945312 54.191406C 36.871094 54.222656 36.808594 54.26172 36.765625 54.3125C 36.722656 54.36328 36.703125 54.414062 36.703125 54.472656C 36.703125 54.570312 36.742188 54.64453 36.820312 54.69922C 36.902344 54.75 37.039062 54.796875 37.242188 54.83203C 37.476562 54.871094 37.648438 54.929688 37.746094 55.003906C 37.839844 55.078125 37.890625 55.179688 37.890625 55.316406C 37.890625 55.464844 37.828125 55.585938 37.69922 55.67578C 37.57422 55.765625 37.402344 55.808594 37.1875 55.808594zM40.69922 55.808594C 40.523438 55.808594 40.371094 55.773438 40.23828 55.703125C 40.109375 55.63672 40.01953 55.535156 39.96875 55.398438L39.96875 55.398438L40.11328 55.304688C 40.148438 55.421875 40.21875 55.507812 40.328125 55.566406C 40.433594 55.625 40.566406 55.65625 40.722656 55.65625C 40.878906 55.65625 41.003906 55.625 41.09375 55.566406C 41.183594 55.503906 41.226562 55.42578 41.226562 55.32422C 41.226562 55.23828 41.1875 55.16797 41.11328 55.117188C 41.035156 55.066406 40.902344 55.023438 40.70703 54.98828C 40.464844 54.941406 40.29297 54.882812 40.191406 54.8125C 40.089844 54.734375 40.039062 54.628906 40.039062 54.492188C 40.039062 54.402344 40.066406 54.316406 40.125 54.23828C 40.179688 54.164062 40.257812 54.101562 40.359375 54.058594C 40.464844 54.015625 40.58203 53.992188 40.710938 53.992188C 40.89453 53.992188 41.04297 54.027344 41.152344 54.097656C 41.265625 54.16797 41.339844 54.273438 41.382812 54.41797L41.382812 54.41797L41.234375 54.507812C 41.16797 54.265625 40.992188 54.148438 40.710938 54.148438C 40.617188 54.148438 40.535156 54.160156 40.45703 54.191406C 40.382812 54.222656 40.320312 54.26172 40.277344 54.3125C 40.234375 54.36328 40.214844 54.414062 40.214844 54.472656C 40.214844 54.570312 40.253906 54.64453 40.33203 54.69922C 40.414062 54.75 40.554688 54.796875 40.753906 54.83203C 40.992188 54.871094 41.160156 54.929688 41.257812 55.003906C 41.35547 55.078125 41.402344 55.179688 41.402344 55.316406C 41.402344 55.464844 41.339844 55.585938 41.210938 55.67578C 41.085938 55.765625 40.914062 55.808594 40.69922 55.808594zM43.73047 53.6875C 43.6875 53.6875 43.652344 53.67578 43.625 53.648438C 43.597656 53.621094 43.585938 53.585938 43.585938 53.539062C 43.585938 53.496094 43.597656 53.460938 43.625 53.433594C 43.652344 53.410156 43.6875 53.39453 43.73047 53.39453C 43.773438 53.39453 43.8125 53.410156 43.839844 53.433594C 43.867188 53.460938 43.878906 53.496094 43.878906 53.539062C 43.878906 53.585938 43.867188 53.621094 43.839844 53.648438C 43.8125 53.67578 43.773438 53.6875 43.73047 53.6875zM43.820312 54.027344L43.820312 55.773438L43.64453 55.773438L43.64453 54.027344zM46.914062 53.992188C 47.171875 53.992188 47.375 54.07422 47.523438 54.234375C 47.66797 54.398438 47.742188 54.621094 47.742188 54.902344C 47.742188 55.183594 47.66797 55.40625 47.523438 55.566406C 47.375 55.73047 47.171875 55.808594 46.914062 55.808594C 46.652344 55.808594 46.44922 55.73047 46.304688 55.566406C 46.15625 55.40625 46.08203 55.183594 46.08203 54.902344C 46.08203 54.621094 46.15625 54.398438 46.304688 54.234375C 46.44922 54.07422 46.652344 53.992188 46.914062 53.992188zM46.914062 54.140625C 46.70703 54.140625 46.546875 54.210938 46.429688 54.34375C 46.3125 54.48047 46.257812 54.66797 46.257812 54.902344C 46.257812 55.13672 46.3125 55.320312 46.429688 55.45703C 46.546875 55.59375 46.70703 55.660156 46.914062 55.660156C 47.117188 55.660156 47.277344 55.59375 47.39453 55.45703C 47.51172 55.320312 47.570312 55.13672 47.570312 54.902344C 47.570312 54.66797 47.51172 54.48047 47.39453 54.34375C 47.277344 54.210938 47.117188 54.140625 46.914062 54.140625zM50.820312 53.992188C 51.01953 53.992188 51.179688 54.046875 51.304688 54.160156C 51.42578 54.26953 51.48828 54.429688 51.48828 54.640625L51.48828 54.640625L51.48828 55.773438L51.3125 55.773438L51.3125 54.69922C 51.3125 54.51172 51.265625 54.375 51.17578 54.28125C 51.085938 54.191406 50.960938 54.148438 50.80078 54.148438C 50.691406 54.148438 50.585938 54.171875 50.48828 54.222656C 50.39453 54.273438 50.320312 54.347656 50.26172 54.445312C 50.203125 54.54297 50.17578 54.660156 50.17578 54.789062L50.17578 54.789062L50.17578 55.773438L50 55.773438L50 54.027344L50.15625 54.027344L50.164062 54.378906C 50.222656 54.253906 50.308594 54.160156 50.421875 54.09375C 50.539062 54.023438 50.671875 53.992188 50.820312 53.992188zM55.242188 55.660156C 55.30078 55.660156 55.347656 55.652344 55.382812 55.63672L55.382812 55.63672L55.371094 55.773438C 55.328125 55.796875 55.273438 55.808594 55.19922 55.808594C 55.117188 55.808594 55.05078 55.789062 55 55.742188C 54.94922 55.69922 54.921875 55.621094 54.910156 55.51172C 54.859375 55.60547 54.773438 55.679688 54.65625 55.73047C 54.535156 55.78125 54.410156 55.808594 54.28125 55.808594C 54.10547 55.808594 53.96875 55.76953 53.867188 55.695312C 53.76172 55.617188 53.710938 55.507812 53.710938 55.367188C 53.710938 55.09375 53.933594 54.921875 54.375 54.839844L54.375 54.839844L54.910156 54.746094L54.910156 54.59375C 54.910156 54.453125 54.867188 54.34375 54.785156 54.265625C 54.703125 54.1875 54.585938 54.148438 54.433594 54.148438C 54.15625 54.148438 53.96875 54.26953 53.875 54.515625L53.875 54.515625L53.742188 54.41797C 53.79297 54.28125 53.878906 54.17578 53.996094 54.101562C 54.117188 54.027344 54.26172 53.992188 54.433594 53.992188C 54.63672 53.992188 54.796875 54.04297 54.910156 54.140625C 55.027344 54.23828 55.085938 54.382812 55.085938 54.570312L55.085938 54.570312L55.085938 55.476562C 55.085938 55.597656 55.13672 55.660156 55.242188 55.660156zM54.296875 55.65625C 54.39453 55.65625 54.492188 55.63672 54.585938 55.60547C 54.679688 55.570312 54.753906 55.523438 54.816406 55.45703C 54.878906 55.38672 54.910156 55.308594 54.910156 55.214844L54.910156 55.214844L54.910156 54.890625L54.429688 54.976562C 54.242188 55.01172 54.10547 55.0625 54.01953 55.125C 53.929688 55.1875 53.88672 55.265625 53.88672 55.367188C 53.88672 55.45703 53.92578 55.53125 53.996094 55.578125C 54.070312 55.628906 54.16797 55.65625 54.296875 55.65625zM58.33203 55.51953L58.39453 55.664062C 58.347656 55.70703 58.289062 55.746094 58.222656 55.773438C 58.15625 55.796875 58.08203 55.808594 58 55.808594C 57.85547 55.808594 57.746094 55.76953 57.664062 55.691406C 57.585938 55.61328 57.546875 55.496094 57.546875 55.335938L57.546875 55.335938L57.546875 54.17578L57.195312 54.17578L57.195312 54.027344L57.546875 54.027344L57.546875 53.589844L57.71875 53.539062L57.71875 54.027344L58.378906 54.027344L58.378906 54.17578L57.71875 54.17578L57.71875 55.3125C 57.71875 55.421875 57.746094 55.507812 57.796875 55.5625C 57.851562 55.621094 57.92578 55.648438 58.027344 55.648438C 58.14453 55.648438 58.246094 55.60547 58.33203 55.51953zM61.94922 54.859375C 61.94922 54.898438 61.94922 54.9375 61.941406 54.972656L61.941406 54.972656L60.554688 54.972656C 60.566406 55.1875 60.628906 55.35547 60.742188 55.476562C 60.859375 55.59375 61.015625 55.65625 61.20703 55.65625C 61.34375 55.65625 61.464844 55.628906 61.5625 55.57422C 61.660156 55.515625 61.734375 55.4375 61.777344 55.335938L61.777344 55.335938L61.92578 55.410156C 61.859375 55.539062 61.765625 55.63672 61.64453 55.70703C 61.523438 55.777344 61.378906 55.808594 61.20703 55.808594C 60.94922 55.808594 60.746094 55.73047 60.601562 55.566406C 60.45703 55.40625 60.382812 55.183594 60.382812 54.902344C 60.382812 54.617188 60.453125 54.39453 60.59375 54.234375C 60.734375 54.07422 60.933594 53.992188 61.1875 53.992188C 61.42578 53.992188 61.609375 54.070312 61.746094 54.23047C 61.882812 54.38672 61.94922 54.597656 61.94922 54.859375zM61.1875 54.148438C 60.996094 54.148438 60.847656 54.20703 60.73828 54.320312C 60.628906 54.441406 60.566406 54.60547 60.554688 54.816406L60.554688 54.816406L61.785156 54.816406C 61.773438 54.60547 61.714844 54.441406 61.61328 54.32422C 61.507812 54.20703 61.367188 54.148438 61.1875 54.148438zM68.91406 55.191406C 68.85156 55.38672 68.73828 55.539062 68.57422 55.648438C 68.41016 55.753906 68.21875 55.808594 67.99219 55.808594C 67.78125 55.808594 67.59766 55.76172 67.44141 55.664062C 67.28125 55.566406 67.16016 55.429688 67.07422 55.25C 66.98828 55.070312 66.94141 54.859375 66.94141 54.621094C 66.94141 54.382812 66.98828 54.171875 67.07422 53.992188C 67.16016 53.8125 67.28125 53.67578 67.44141 53.578125C 67.59766 53.48047 67.78125 53.433594 67.98828 53.433594C 68.44922 53.433594 68.75 53.621094 68.88281 54.003906L68.88281 54.003906L68.71484 54.08203C 68.66016 53.91797 68.57422 53.796875 68.45703 53.714844C 68.33984 53.632812 68.1875 53.59375 68 53.59375C 67.82422 53.59375 67.671875 53.632812 67.54297 53.71875C 67.41016 53.80078 67.30859 53.91797 67.23828 54.07422C 67.16406 54.23047 67.12891 54.410156 67.12891 54.621094C 67.12891 54.83203 67.16406 55.01172 67.234375 55.16797C 67.30859 55.32422 67.40625 55.441406 67.53906 55.523438C 67.66406 55.609375 67.81641 55.648438 67.99219 55.648438C 68.17969 55.648438 68.33594 55.60547 68.46875 55.51172C 68.59766 55.421875 68.6875 55.29297 68.74219 55.125zM71.828125 53.992188C 72.08594 53.992188 72.28906 54.07422 72.4375 54.234375C 72.58203 54.398438 72.65625 54.621094 72.65625 54.902344C 72.65625 55.183594 72.58203 55.40625 72.4375 55.566406C 72.28906 55.73047 72.08594 55.808594 71.828125 55.808594C 71.57031 55.808594 71.36719 55.73047 71.21875 55.566406C 71.07031 55.40625 70.99609 55.183594 70.99609 54.902344C 70.99609 54.621094 71.07031 54.398438 71.21875 54.234375C 71.36719 54.07422 71.57031 53.992188 71.828125 53.992188zM71.828125 54.140625C 71.62109 54.140625 71.46094 54.210938 71.34375 54.34375C 71.22656 54.48047 71.171875 54.66797 71.171875 54.902344C 71.171875 55.13672 71.22656 55.320312 71.34375 55.45703C 71.46094 55.59375 71.62109 55.660156 71.828125 55.660156C 72.03125 55.660156 72.19141 55.59375 72.30859 55.45703C 72.42578 55.320312 72.484375 55.13672 72.484375 54.902344C 72.484375 54.66797 72.42578 54.48047 72.30859 54.34375C 72.19141 54.210938 72.03125 54.140625 71.828125 54.140625zM76.25 53.222656L76.421875 53.222656L76.421875 55.773438L76.265625 55.773438L76.25391 55.382812C 76.20703 55.515625 76.125 55.621094 76.01172 55.69922C 75.89453 55.773438 75.76172 55.808594 75.60547 55.808594C 75.359375 55.808594 75.16406 55.73047 75.01953 55.566406C 74.875 55.40625 74.80469 55.183594 74.80469 54.902344C 74.80469 54.617188 74.875 54.39453 75.01953 54.234375C 75.16406 54.07422 75.359375 53.992188 75.60547 53.992188C 75.75391 53.992188 75.88672 54.027344 76 54.097656C 76.11328 54.171875 76.19531 54.273438 76.25 54.398438zM75.625 55.65625C 75.80859 55.65625 75.953125 55.59375 76.06641 55.472656C 76.17578 55.347656 76.23828 55.183594 76.25 54.972656L76.25 54.972656L76.25 54.828125C 76.23828 54.617188 76.17578 54.453125 76.0625 54.328125C 75.953125 54.20703 75.80859 54.148438 75.625 54.148438C 75.421875 54.148438 75.265625 54.214844 75.14844 54.347656C 75.03516 54.48047 74.98047 54.66797 74.98047 54.902344C 74.98047 55.13672 75.03516 55.320312 75.14844 55.45703C 75.265625 55.589844 75.421875 55.65625 75.625 55.65625zM78.87891 53.6875C 78.83594 53.6875 78.80078 53.67578 78.77344 53.648438C 78.74609 53.621094 78.73047 53.585938 78.73047 53.539062C 78.73047 53.496094 78.74609 53.460938 78.77344 53.433594C 78.80078 53.410156 78.83594 53.39453 78.87891 53.39453C 78.92578 53.39453 78.96094 53.410156 78.98828 53.433594C 79.01172 53.460938 79.02734 53.496094 79.02734 53.539062C 79.02734 53.585938 79.01172 53.621094 78.98828 53.648438C 78.96094 53.67578 78.92578 53.6875 78.87891 53.6875zM78.96875 54.027344L78.96875 55.773438L78.79297 55.773438L78.79297 54.027344zM82.15625 53.992188C 82.359375 53.992188 82.51953 54.046875 82.640625 54.160156C 82.765625 54.26953 82.828125 54.429688 82.828125 54.640625L82.828125 54.640625L82.828125 55.773438L82.65234 55.773438L82.65234 54.69922C 82.65234 54.51172 82.60547 54.375 82.515625 54.28125C 82.42578 54.191406 82.30078 54.148438 82.140625 54.148438C 82.02734 54.148438 81.92578 54.171875 81.83203 54.222656C 81.734375 54.273438 81.65625 54.347656 81.60156 54.445312C 81.54297 54.54297 81.515625 54.660156 81.515625 54.789062L81.515625 54.789062L81.515625 55.773438L81.33984 55.773438L81.33984 54.027344L81.5 54.027344L81.50781 54.378906C 81.5625 54.253906 81.64453 54.160156 81.76172 54.09375C 81.87891 54.023438 82.00781 53.992188 82.15625 53.992188zM86.07422 55.597656C 86.24609 55.597656 86.38672 55.632812 86.48828 55.703125C 86.58594 55.777344 86.63672 55.871094 86.63672 55.996094C 86.63672 56.097656 86.60156 56.191406 86.53125 56.273438C 86.45703 56.35547 86.359375 56.414062 86.234375 56.45703C 86.109375 56.503906 85.96484 56.527344 85.80469 56.527344C 85.53906 56.527344 85.33984 56.484375 85.19922 56.398438C 85.05859 56.3125 84.98828 56.203125 84.98828 56.0625C 84.98828 55.96875 85.015625 55.890625 85.07422 55.828125C 85.12891 55.76172 85.20703 55.714844 85.30469 55.6875C 85.234375 55.65625 85.17969 55.617188 85.140625 55.5625C 85.09766 55.507812 85.078125 55.44922 85.078125 55.382812C 85.078125 55.30078 85.10547 55.23047 85.16016 55.171875C 85.21484 55.11328 85.28906 55.070312 85.38281 55.04297C 85.28516 54.996094 85.21094 54.929688 85.16016 54.847656C 85.109375 54.765625 85.08203 54.66797 85.08203 54.5625C 85.08203 54.390625 85.14844 54.25 85.27734 54.148438C 85.41016 54.04297 85.578125 53.992188 85.79297 53.992188C 85.94141 53.992188 86.07422 54.01953 86.19141 54.070312C 86.203125 53.960938 86.25 53.871094 86.328125 53.804688C 86.40625 53.73828 86.50781 53.703125 86.625 53.703125L86.625 53.703125L86.66797 53.859375C 86.55859 53.859375 86.47266 53.882812 86.41016 53.933594C 86.34766 53.98047 86.30859 54.05078 86.30078 54.140625C 86.43359 54.25 86.5 54.390625 86.5 54.5625C 86.5 54.734375 86.43359 54.875 86.30469 54.976562C 86.17578 55.08203 86.00781 55.13672 85.79297 55.13672C 85.72266 55.13672 85.640625 55.128906 85.55469 55.109375C 85.45703 55.121094 85.38281 55.152344 85.32422 55.195312C 85.27344 55.242188 85.24609 55.296875 85.24609 55.359375C 85.24609 55.433594 85.27734 55.492188 85.33984 55.53125C 85.40234 55.57422 85.49609 55.597656 85.625 55.597656zM85.25781 54.5625C 85.25781 54.691406 85.30859 54.796875 85.40234 54.875C 85.5 54.94922 85.62891 54.98828 85.79297 54.98828C 85.95703 54.98828 86.08594 54.94922 86.18359 54.875C 86.27734 54.796875 86.32422 54.691406 86.32422 54.5625C 86.32422 54.429688 86.27734 54.328125 86.18359 54.25C 86.08594 54.17578 85.95703 54.140625 85.79297 54.140625C 85.62891 54.140625 85.5 54.17578 85.40234 54.25C 85.30859 54.328125 85.25781 54.429688 85.25781 54.5625zM85.82422 56.378906C 86.01953 56.378906 86.17969 56.34375 86.30078 56.277344C 86.41797 56.20703 86.48047 56.121094 86.48047 56.015625C 86.48047 55.933594 86.44141 55.867188 86.36328 55.820312C 86.28906 55.76953 86.17969 55.746094 86.03516 55.746094L86.03516 55.746094L85.58203 55.746094C 85.453125 55.746094 85.34766 55.773438 85.26953 55.82422C 85.19141 55.878906 85.15234 55.94922 85.15234 56.035156C 85.15234 56.140625 85.21094 56.226562 85.32422 56.285156C 85.44141 56.347656 85.609375 56.378906 85.82422 56.378906z" stroke="none" fill="#D1A103" fill-rule="nonzero" />
</g>
</svg>