<?xml version="1.0" standalone="no"?>
<!DOCTYPE svg PUBLIC "-//W3C//DTD SVG 20010904//EN"
 "http://www.w3.org/TR/2001/REC-SVG-20010904/DTD/svg10.dtd">
<svg version="1.0" xmlns="http://www.w3.org/2000/svg"
 width="800.000000pt" height="800.000000pt" viewBox="0 0 800.000000 800.000000"
 preserveAspectRatio="xMidYMid meet">
<metadata>
Created by potrace 1.14, written by Peter Selinger 2001-2017
</metadata>
<g transform="translate(0.000000,800.000000) scale(0.100000,-0.100000)"
fill="#000000" stroke="none">
<path d="M3758 7995 c-1 -1 -39 -6 -83 -9 -209 -17 -433 -54 -645 -106 -216
-54 -494 -150 -670 -232 -121 -56 -235 -112 -240 -118 -3 -3 -34 -20 -70 -39
-186 -97 -492 -312 -685 -480 -43 -38 -366 -362 -390 -391 -83 -102 -183 -229
-195 -246 -269 -385 -427 -684 -555 -1054 -32 -93 -91 -285 -99 -325 -3 -11
-13 -58 -24 -105 -18 -74 -39 -182 -57 -285 -2 -16 -7 -55 -10 -85 -4 -30 -8
-62 -10 -70 -26 -103 -26 -731 -1 -890 2 -14 7 -52 11 -85 4 -32 9 -68 11 -79
2 -11 6 -38 10 -60 3 -22 7 -43 9 -46 1 -3 6 -26 9 -51 22 -164 138 -548 236
-783 46 -111 182 -386 223 -451 6 -11 45 -74 86 -140 66 -106 250 -363 291
-405 8 -9 35 -40 60 -70 54 -65 188 -207 250 -266 99 -93 131 -122 181 -165
377 -321 837 -584 1294 -739 122 -42 212 -70 235 -75 8 -2 70 -17 138 -34 68
-17 142 -33 165 -36 23 -4 44 -8 47 -10 3 -1 28 -6 55 -9 28 -4 61 -8 75 -11
53 -10 87 -14 153 -20 38 -3 83 -9 100 -11 56 -10 539 -12 632 -3 50 4 117 11
150 14 107 10 365 56 507 91 467 114 902 309 1297 578 57 39 113 78 125 86
147 100 373 304 586 529 123 130 359 444 438 582 11 19 38 65 61 102 60 98
182 343 237 477 118 290 203 594 259 925 2 17 7 55 10 85 4 30 8 62 10 70 26
104 26 725 0 891 -2 13 -6 51 -10 84 -4 32 -9 68 -11 79 -2 11 -6 38 -10 60
-3 22 -7 43 -9 46 -1 3 -6 26 -9 51 -8 57 -67 299 -100 404 -153 498 -397 957
-719 1354 -120 149 -279 315 -427 450 -19 17 -46 42 -60 54 -44 41 -173 143
-261 206 -335 244 -700 433 -1074 558 -113 38 -196 64 -215 68 -8 2 -51 12
-96 24 -90 23 -211 49 -264 57 -19 3 -42 7 -50 9 -8 2 -35 7 -60 10 -25 3 -56
8 -70 10 -14 2 -56 7 -93 10 -38 3 -83 9 -100 11 -34 6 -573 15 -579 9z"/>
</g>
</svg>
