<?xml version="1.0" standalone="no"?>
<!DOCTYPE svg PUBLIC "-//W3C//DTD SVG 20010904//EN"
 "http://www.w3.org/TR/2001/REC-SVG-20010904/DTD/svg10.dtd">
<svg version="1.0" xmlns="http://www.w3.org/2000/svg"
 width="1080.000000pt" height="1080.000000pt" viewBox="0 0 1080.000000 1080.000000"
 preserveAspectRatio="xMidYMid meet">
<metadata>
Created by potrace 1.16, written by Peter Selinger 2001-2019
</metadata>
<g transform="translate(0.000000,1080.000000) scale(0.100000,-0.100000)"
fill="#000000" stroke="none">
<path d="M0 5400 l0 -5400 5400 0 5400 0 0 5400 0 5400 -5400 0 -5400 0 0
-5400z m5426 4085 c219 -54 428 -209 574 -427 118 -176 201 -375 345 -831 37
-115 88 -266 115 -335 44 -116 68 -172 149 -347 76 -163 92 -198 134 -301 26
-62 69 -160 98 -220 80 -170 104 -253 127 -438 l7 -59 95 -41 c121 -52 233
-113 335 -184 44 -30 87 -54 95 -53 8 0 69 1 135 1 95 -1 123 -4 137 -17 13
-11 15 -20 8 -28 -8 -9 -4 -11 15 -7 18 3 25 11 25 28 0 23 3 24 76 24 47 0
73 -4 69 -10 -4 -6 17 -10 54 -10 l61 0 45 -70 c25 -39 45 -78 45 -89 0 -10 9
-26 20 -36 11 -10 22 -27 26 -39 10 -33 88 -145 101 -146 21 0 55 -58 48 -82
-4 -15 -3 -18 3 -10 10 15 144 -181 137 -200 -3 -7 15 -37 41 -66 68 -77 384
-562 384 -589 0 -13 10 -29 24 -38 25 -16 76 -87 76 -104 0 -6 -35 -59 -78
-118 l-78 -108 -230 -3 -231 -2 -6 122 c-9 185 -49 301 -201 573 -168 303
-324 505 -554 718 -230 213 -462 362 -701 451 -51 19 -95 37 -98 40 -3 3 -7
54 -9 113 -4 140 -27 227 -108 405 -35 79 -91 206 -124 283 -33 77 -99 225
-147 330 -105 229 -134 306 -241 635 -108 333 -155 465 -209 578 -124 261
-267 423 -460 518 -116 57 -189 75 -300 75 -243 0 -428 -123 -618 -411 -74
-113 -248 -458 -397 -790 -217 -482 -407 -851 -548 -1063 -145 -220 -177 -321
-174 -557 1 -85 3 -168 4 -184 4 -34 -1 -37 -107 -65 -156 -42 -339 -146 -498
-284 -122 -106 -302 -327 -423 -520 -70 -112 -220 -400 -253 -487 -42 -109
-86 -316 -94 -435 l-2 -40 -60 0 -60 0 -3 40 c-2 22 1 63 7 90 6 28 18 91 27
140 9 50 31 134 48 188 l32 97 -51 77 c-27 42 -59 90 -69 107 -11 17 -81 126
-156 241 -75 116 -197 302 -270 415 -73 113 -164 253 -201 311 -38 58 -69 108
-69 110 0 6 658 0 697 -7 26 -4 39 -16 71 -67 22 -34 92 -142 156 -239 64 -98
116 -179 116 -181 0 -2 24 -41 54 -85 l55 -82 71 95 c89 119 239 284 317 350
l59 50 -21 39 c-11 22 -30 51 -42 65 -14 15 -19 29 -13 35 5 5 69 6 147 4 135
-5 139 -5 193 22 30 15 90 40 133 55 l77 28 0 111 c1 251 56 428 196 628 119
171 281 485 551 1072 96 209 209 448 251 530 176 346 357 560 559 660 146 73
315 91 479 51z m60 -3890 c10 -8 32 -15 48 -15 16 0 26 -3 23 -6 -3 -4 -2 -15
3 -25 8 -14 5 -19 -20 -24 -17 -4 -30 -10 -30 -15 0 -9 35 -20 67 -20 12 0 24
-4 27 -8 5 -9 -82 2 -159 19 -27 7 -153 15 -280 18 -176 5 -205 8 -125 11
l105 4 -107 5 c-207 11 -118 41 123 41 313 0 316 15 4 20 l-290 5 296 3 c247
2 298 0 315 -13z m-800 -472 c0 -11 5 -17 15 -15 9 1 16 -5 16 -13 0 -8 -4
-15 -9 -15 -19 0 -1 -75 23 -90 9 -6 49 -170 48 -196 0 -18 -1 -18 -9 1 -8 20
-9 20 -9 -1 -1 -12 8 -33 20 -48 24 -31 45 -35 29 -5 -10 17 -31 121 -33 157
0 6 -4 12 -9 12 -4 0 -8 5 -8 11 0 8 5 8 15 -1 8 -7 12 -16 10 -21 -3 -4 0
-11 7 -16 7 -4 21 -25 30 -45 9 -20 24 -45 32 -55 9 -10 26 -34 39 -53 22 -34
25 -35 82 -33 33 0 77 3 97 5 25 2 34 0 28 -6 -12 -12 -185 -13 -253 -2 -39 7
-53 16 -75 45 -14 20 -34 44 -44 54 -10 10 -18 24 -18 33 0 8 -12 33 -26 55
-14 23 -24 42 -22 44 4 4 47 -43 48 -53 1 -20 23 -72 30 -72 8 0 20 24 20 41
0 6 -4 8 -8 5 -5 -3 -19 15 -31 39 -22 44 -52 71 -64 58 -11 -11 -38 20 -59
66 -11 25 -24 54 -29 64 -12 22 -4 37 19 37 14 0 14 -2 3 -9 -12 -8 -12 -16 3
-55 21 -56 36 -59 33 -8 -2 30 1 37 16 36 10 -1 16 0 13 3 -5 5 21 63 28 63 2
0 3 -8 2 -17z m901 -513 l-42 -70 -290 2 c-183 1 -257 4 -200 8 l90 6 -103 2
c-57 1 -112 7 -123 12 -10 6 -28 28 -39 49 -11 22 -25 42 -32 45 -7 3 7 5 32
4 33 -2 50 -8 63 -25 15 -19 29 -23 75 -25 l57 -1 -50 -7 c-27 -4 82 -8 242
-8 l293 -2 17 28 c14 24 42 52 50 52 1 0 -17 -31 -40 -70z m-3832 -224 c46
-30 42 -88 -9 -121 -16 -11 -59 -16 -157 -18 -133 -3 -136 -4 -212 -41 -88
-44 -162 -104 -171 -141 -8 -32 13 -73 59 -113 49 -43 93 -65 254 -122 237
-85 300 -121 321 -185 11 -32 9 -41 -12 -83 -31 -59 -89 -104 -175 -133 -55
-19 -89 -24 -176 -24 l-109 0 -29 33 c-34 38 -37 69 -8 106 25 31 63 34 99 6
32 -25 62 -25 146 1 76 23 100 40 91 63 -8 21 -102 66 -217 106 -274 93 -390
189 -390 323 0 68 19 105 87 168 125 116 353 203 506 195 48 -3 87 -10 102
-20z m4122 -18 c27 -26 31 -82 7 -116 -8 -12 -53 -47 -99 -77 -71 -47 -91 -67
-134 -133 -57 -86 -107 -202 -98 -226 10 -27 80 -19 267 29 96 25 242 61 324
80 85 20 158 42 169 52 11 10 39 59 63 110 49 105 77 131 126 117 17 -5 39
-20 49 -34 10 -14 37 -97 59 -185 22 -87 47 -169 54 -181 8 -11 28 -27 45 -33
17 -8 34 -24 39 -40 l10 -26 11 29 c7 17 16 62 21 100 8 66 43 227 57 262 7
20 56 44 88 44 39 0 81 -26 93 -57 6 -15 19 -61 28 -101 17 -78 52 -132 85
-132 34 0 95 37 132 80 19 22 56 79 82 126 52 93 78 114 122 98 66 -23 88
-110 66 -260 -20 -135 -16 -164 30 -193 59 -39 46 -83 -32 -110 -105 -35 -164
20 -163 151 1 37 -4 70 -9 74 -6 3 -37 -13 -71 -36 -68 -48 -143 -80 -189 -80
-44 0 -96 27 -126 67 -32 41 -49 32 -59 -34 -5 -33 -2 -60 11 -96 17 -47 17
-49 -2 -75 -32 -43 -66 -48 -124 -17 -37 19 -59 24 -80 20 -47 -11 -87 4 -140
51 -57 50 -68 52 -214 29 -49 -8 -92 -14 -93 -15 -2 0 -28 -25 -57 -55 -43
-46 -58 -55 -87 -55 -44 0 -58 15 -58 61 0 37 13 59 77 132 18 20 33 44 33 52
0 20 -49 20 -95 1 -34 -15 -37 -20 -50 -96 -9 -61 -53 -139 -105 -190 -115
-112 -227 -180 -317 -195 -60 -10 -143 10 -184 45 -57 46 -101 141 -107 225
-6 97 14 169 98 346 39 80 70 151 70 156 0 15 96 160 143 216 86 103 183 143
234 95z m-1490 -160 c35 -33 31 -118 -12 -285 -39 -149 -42 -185 -20 -203 18
-15 44 -7 94 33 61 49 88 92 106 171 20 90 37 116 73 116 53 0 74 -37 83 -146
7 -99 15 -118 44 -112 58 11 77 115 55 299 -15 126 -8 149 44 149 36 0 63 -23
90 -78 24 -47 9 -315 -21 -383 -38 -86 -124 -159 -188 -159 -32 0 -93 31 -119
59 -11 12 -25 21 -32 21 -7 0 -42 -22 -79 -50 -71 -53 -130 -75 -183 -66 -115
18 -142 122 -90 341 15 61 31 149 36 198 5 48 15 94 22 102 18 22 70 18 97 -7z
m-1600 -17 c33 -21 40 -37 83 -211 39 -157 48 -179 90 -205 21 -13 41 -35 45
-47 4 -13 23 -38 43 -55 36 -32 37 -33 22 -60 -19 -34 -85 -58 -136 -49 -20 4
-55 25 -85 51 -57 52 -68 53 -218 30 l-95 -14 -52 -57 -53 -57 -61 6 c-33 3
-72 12 -85 21 -27 18 -50 82 -66 191 -19 121 -16 115 -49 115 -41 0 -109 -29
-120 -51 -17 -31 -11 -80 17 -130 l28 -48 -21 -28 c-14 -18 -32 -29 -52 -31
-61 -6 -95 30 -121 131 l-16 62 -60 5 c-54 5 -61 8 -69 32 -8 23 -6 32 15 54
13 14 47 37 76 51 60 29 73 54 73 147 0 88 15 134 46 142 61 15 94 -34 94
-142 0 -63 15 -79 66 -71 61 10 74 30 74 111 0 83 16 116 58 116 49 0 67 -25
87 -119 8 -40 24 -84 35 -98 25 -32 25 -59 0 -101 -33 -53 -23 -182 14 -182
30 0 135 163 217 336 27 57 49 108 49 113 0 17 53 61 74 61 11 0 35 -9 53 -19z
m6088 -26 c14 -13 25 -30 25 -38 0 -29 -42 -66 -91 -82 -37 -13 -67 -34 -109
-76 -63 -64 -90 -111 -90 -159 0 -74 45 -102 163 -101 67 0 84 4 101 20 17 17
18 26 10 58 -10 43 -18 44 -95 23 -57 -16 -97 -7 -109 25 -15 40 4 73 54 96
124 54 543 156 599 145 63 -13 90 -71 45 -99 -13 -8 -66 -22 -118 -32 -103
-19 -190 -46 -227 -70 -39 -26 -31 -79 27 -191 28 -53 50 -105 50 -115 0 -27
-35 -59 -64 -59 -15 0 -45 17 -73 41 l-47 42 -106 -6 c-162 -8 -229 9 -308 83
-27 25 -44 35 -47 27 -2 -6 -9 -32 -16 -57 -20 -81 -83 -140 -148 -140 -63 0
-156 63 -231 158 -23 29 -48 52 -55 52 -25 0 -39 -78 -25 -130 24 -82 20 -103
-24 -124 -74 -36 -123 7 -134 120 -4 38 -10 68 -15 67 -83 -23 -129 -4 -159
64 -18 41 -19 58 -13 182 5 82 13 147 21 163 26 50 83 48 110 -5 14 -26 15
-50 10 -143 -7 -101 -5 -116 13 -152 11 -23 25 -43 30 -46 19 -12 66 151 76
266 8 85 21 125 46 138 28 16 64 12 87 -10 20 -19 26 -35 53 -145 33 -131 165
-315 207 -289 26 17 31 76 15 213 -28 244 -27 227 -4 250 26 26 63 27 102 4
37 -22 44 -49 29 -112 -9 -38 -9 -63 0 -105 6 -31 14 -56 18 -56 4 0 18 21 32
47 34 65 128 182 178 221 83 66 164 81 207 37z m-5363 -32 c59 -32 114 -101
124 -153 12 -64 17 -65 65 -15 58 61 162 138 230 170 66 31 128 32 185 4 91
-44 110 -138 59 -298 -24 -74 -34 -92 -84 -141 -41 -41 -76 -64 -132 -87 -187
-78 -308 -44 -354 99 -10 29 -20 56 -24 60 -4 4 -34 -16 -67 -45 -100 -87
-139 -116 -195 -142 -70 -32 -96 -31 -151 5 -78 52 -83 65 -83 227 0 78 -4
145 -8 150 -5 4 -25 13 -45 18 -23 7 -42 21 -52 37 -13 25 -13 29 6 55 31 42
142 81 256 90 124 11 207 0 270 -34z"/>
<path d="M1779 3568 c-20 -24 -48 -49 -63 -57 -24 -13 -28 -13 -43 2 -15 15
-15 17 -2 17 9 0 26 12 40 26 l24 26 -53 -27 c-50 -25 -117 -45 -194 -59 -41
-7 -78 6 -78 28 0 11 -20 26 -35 26 -13 0 -35 -35 -35 -55 0 -43 43 -65 124
-65 163 1 292 59 342 153 20 37 14 34 -27 -15z"/>
<path d="M5450 3871 c-104 -205 -114 -357 -32 -476 42 -61 81 -77 177 -73 98
5 144 28 263 129 90 76 126 125 149 201 19 64 11 72 -12 13 -44 -117 -124
-206 -258 -288 -69 -42 -129 -48 -135 -14 -2 11 3 17 16 17 30 0 192 84 238
124 42 35 124 152 124 175 0 7 -23 -22 -51 -64 -114 -169 -332 -272 -414 -195
-68 64 -87 170 -50 283 13 40 22 73 20 75 -1 1 -13 -22 -26 -53 -13 -30 -28
-55 -32 -55 -5 0 -5 5 -2 10 3 6 1 10 -4 10 -6 0 -11 10 -11 23 0 22 39 137
59 176 7 12 9 21 7 21 -3 0 -15 -18 -26 -39z"/>
<path d="M7416 3805 c-4 -22 -10 -52 -12 -67 -6 -33 28 -116 52 -125 27 -10
128 20 132 40 3 13 -4 17 -32 17 -45 0 -66 28 -67 95 -1 27 -3 42 -6 33 -2
-10 -11 -18 -19 -18 -8 0 -17 0 -21 0 -5 -1 -11 14 -14 32 l-5 33 -8 -40z"/>
<path d="M6262 3798 c-9 -17 -44 -63 -77 -102 -74 -88 -92 -123 -72 -144 22
-22 47 -8 101 58 46 55 53 60 90 60 23 0 59 5 81 9 22 5 71 12 108 15 58 4 70
2 83 -13 76 -91 80 -93 136 -86 29 4 62 12 73 18 10 5 20 6 22 1 21 -60 59
-80 94 -48 23 21 24 37 4 54 -8 7 -15 27 -16 44 0 17 -4 40 -9 51 -8 19 -9 19
-9 -2 -1 -17 -7 -23 -25 -23 -19 0 -26 6 -29 28 -2 15 -5 1 -6 -32 -1 -45 -4
-56 -13 -49 -7 6 -30 13 -51 16 -66 10 -87 40 -41 58 26 9 26 10 8 24 -10 8
-28 15 -39 15 -12 0 -26 5 -33 12 -7 7 -12 9 -12 6 0 -16 34 -38 58 -39 l27
-1 -25 -7 c-14 -4 -29 -5 -35 -1 -23 17 -105 38 -110 29 -4 -5 -50 -9 -104 -9
-111 0 -129 9 -106 50 23 40 18 39 -27 -3 -45 -43 -59 -38 -33 12 8 17 13 31
10 31 -3 0 -14 -14 -23 -32z"/>
<path d="M5755 3674 c-83 -24 -143 -36 -195 -37 l-75 -2 -3 -40 c-8 -92 44
-165 117 -165 46 0 159 54 217 104 53 45 118 140 111 160 -9 23 -36 19 -172
-20z"/>
<path d="M4238 3760 c-9 -45 5 -107 30 -132 57 -58 186 -14 282 95 41 47 32
48 -19 2 -51 -46 -66 -27 -20 23 l34 36 -35 -27 c-70 -55 -126 -87 -151 -87
-36 0 -63 41 -56 84 5 28 5 29 -5 9 -16 -33 -46 -30 -50 5 -3 26 -4 25 -10 -8z"/>
<path d="M2438 3690 c-57 -61 -82 -108 -72 -135 14 -36 61 -6 134 88 17 22 30
27 63 27 23 0 60 5 81 10 21 5 72 12 112 15 l73 7 28 -46 c34 -56 68 -70 136
-57 55 10 62 14 54 36 -4 9 -18 15 -36 15 -34 0 -77 31 -67 48 4 7 14 12 22
12 8 0 14 4 14 10 0 10 -27 3 -47 -13 -7 -5 -25 -6 -40 -1 -16 4 -30 8 -33 8
-3 1 -10 5 -17 9 -6 4 -19 4 -30 0 -15 -5 -16 -4 -6 8 10 12 0 13 -70 9 -45
-3 -100 -3 -122 1 -35 6 -37 6 -21 -6 10 -8 15 -18 12 -24 -6 -10 -92 -31
-127 -31 l-21 0 21 35 c11 19 19 35 18 35 -1 0 -27 -27 -59 -60z"/>
<path d="M7891 3736 c-20 -50 -33 -147 -27 -189 10 -68 24 -81 75 -72 52 9 59
24 30 64 -19 26 -21 38 -16 98 2 37 8 77 12 88 6 18 5 18 -12 -2 -16 -19 -20
-20 -37 -8 -11 8 -16 21 -13 30 4 8 4 15 1 15 -2 0 -9 -11 -13 -24z"/>
<path d="M8574 3743 c4 -12 9 -31 11 -42 4 -20 3 -20 -25 -6 -16 8 -34 23 -39
32 -7 13 -10 14 -11 4 0 -26 79 -88 128 -101 52 -13 143 -14 241 -4 l64 7 42
-47 c24 -25 51 -46 61 -45 14 0 15 2 4 6 -8 3 -36 27 -62 54 -42 45 -50 49
-95 50 l-48 1 37 12 c42 13 65 32 28 23 -14 -3 -61 -9 -105 -13 -104 -8 -158
6 -204 54 -25 27 -32 31 -27 15z"/>
<path d="M8406 3673 c-4 -24 -11 -43 -15 -43 -14 0 -31 24 -32 45 -1 15 -3 13
-9 -8 -22 -71 -53 -74 -122 -9 -40 36 -47 40 -31 17 l21 -30 -25 -12 c-22 -11
-29 -8 -66 25 -45 40 -35 20 22 -41 38 -41 117 -87 150 -87 34 0 88 39 106 76
9 19 15 51 13 72 l-3 37 -9 -42z"/>
<path d="M3263 4024 c-17 -14 -25 -36 -33 -89 -20 -145 -9 -225 31 -225 48 0
221 151 234 203 18 71 -35 117 -143 125 -55 3 -71 1 -89 -14z"/>
<path d="M3918 3960 c-57 -38 -123 -108 -145 -155 -21 -43 -7 -81 33 -91 38
-10 121 19 168 58 44 36 86 117 86 165 0 60 -69 71 -142 23z"/>
<path d="M4075 3848 c-37 -120 -258 -216 -330 -143 -14 13 -26 34 -26 47 -1
17 -3 18 -6 6 -5 -20 -23 -25 -23 -7 0 7 -10 9 -25 7 -21 -5 -25 -1 -26 21
l-1 26 -7 -25 c-11 -35 22 -119 56 -147 38 -31 77 -37 151 -23 157 28 279 119
295 220 l6 35 -16 -35 c-18 -43 -42 -70 -60 -70 -7 0 -13 7 -13 15 0 8 4 15 8
15 9 0 34 71 28 78 -2 2 -7 -7 -11 -20z"/>
</g>
</svg>
