<?xml version="1.0" standalone="no"?>
<!DOCTYPE svg PUBLIC "-//W3C//DTD SVG 20010904//EN"
 "http://www.w3.org/TR/2001/REC-SVG-20010904/DTD/svg10.dtd">
<svg version="1.0" xmlns="http://www.w3.org/2000/svg"
 width="700.000000pt" height="700.000000pt" viewBox="0 0 700.000000 700.000000"
 preserveAspectRatio="xMidYMid meet">
<metadata>
Created by potrace 1.14, written by Peter Selinger 2001-2017
</metadata>
<g transform="translate(0.000000,700.000000) scale(0.100000,-0.100000)"
fill="#000000" stroke="none">
<path d="M0 3500 l0 -3500 3500 0 3500 0 0 3500 0 3500 -3500 0 -3500 0 0
-3500z m1450 446 c-5 -14 -27 -67 -49 -120 -30 -68 -41 -109 -41 -144 l0 -50
-67 -6 c-38 -3 -108 -9 -156 -12 l-88 -6 5 -37 c11 -74 47 -462 44 -472 -2 -6
-39 174 -82 400 -44 226 -77 413 -75 415 2 2 99 -16 214 -40 116 -24 211 -44
212 -44 1 0 21 32 44 70 43 73 55 87 39 46z m4 -236 c-14 -140 -27 -256 -28
-257 -1 -1 -42 -13 -90 -26 -48 -13 -91 -30 -95 -38 -4 -8 -27 -80 -51 -161
-24 -81 -45 -146 -47 -144 -2 2 10 68 27 147 23 108 30 159 26 204 -3 33 -7
80 -8 105 l-3 45 98 6 c53 3 101 10 106 15 5 5 26 89 47 186 20 98 39 177 40
175 2 -1 -9 -117 -22 -257z m133 188 c51 -63 66 -75 107 -86 l48 -13 -7 -47
c-4 -26 -8 -49 -10 -50 -2 -2 -22 -1 -44 3 -39 6 -41 8 -41 43 0 27 -15 59
-60 129 -32 51 -58 93 -56 93 2 0 30 -33 63 -72z m2053 47 c18 -21 5 -47 -22
-43 -26 3 -37 36 -16 49 18 12 24 11 38 -6z m1615 -15 c0 -18 -6 -26 -21 -28
-26 -4 -40 24 -23 45 18 21 44 11 44 -17z m-3017 4 c16 -11 22 -25 22 -52 l-1
-37 -19 36 c-24 46 -70 65 -109 46 -29 -14 -38 -45 -22 -76 6 -11 40 -33 75
-50 72 -34 96 -61 96 -108 0 -74 -37 -103 -134 -103 -77 0 -96 18 -95 88 1 50
2 53 8 22 11 -56 29 -79 69 -90 48 -15 87 -1 96 35 11 44 -13 77 -84 112 -36
18 -71 40 -77 50 -14 18 -17 91 -5 110 21 33 141 45 180 17z m2375 -3 c25 -20
25 -302 0 -322 -11 -10 -52 -15 -125 -17 l-108 -4 0 175 c0 131 3 177 13 181
26 11 204 1 220 -13z m-3053 -107 c23 -63 49 -122 57 -130 8 -8 30 -14 50 -14
28 0 34 -3 29 -16 -3 -9 -6 -28 -6 -42 0 -40 -10 -48 -68 -56 l-53 -7 2 73 c2
67 -10 130 -57 291 -3 9 -3 17 -1 17 2 0 23 -52 47 -116z m948 30 c20 -14 22
-23 22 -124 0 -101 -2 -110 -22 -124 -14 -10 -44 -16 -75 -16 l-53 0 0 -34 c0
-32 -13 -46 -41 -46 -5 0 -9 77 -9 180 l0 180 78 0 c54 0 84 -5 100 -16z m219
8 c15 -9 28 -62 16 -62 -6 0 -15 11 -21 25 -8 17 -20 25 -37 25 -31 0 -34 -14
-38 -144 -2 -92 -3 -99 -24 -107 l-23 -8 0 130 c0 125 1 130 23 139 27 11 88
12 104 2z m237 -13 c25 -20 26 -25 26 -117 0 -53 -4 -102 -8 -108 -23 -35
-129 -47 -170 -18 -19 13 -22 24 -22 78 0 35 5 67 12 74 7 7 38 12 70 12 65 0
75 10 59 53 -9 23 -16 27 -50 27 -40 0 -55 -11 -64 -45 -3 -12 -5 -5 -6 17 -1
42 5 46 75 47 38 1 58 -5 78 -20z m294 -139 c3 -192 3 -193 -96 -198 -62 -4
-72 -2 -92 18 -12 12 -19 25 -15 28 4 4 11 -1 16 -10 23 -42 129 -29 129 16 0
22 -4 24 -60 28 -33 2 -66 10 -73 17 -7 7 -13 51 -15 116 -3 94 -2 105 18 125
18 18 30 20 103 18 l82 -3 3 -155z m267 -7 c0 -118 -3 -166 -13 -175 -7 -7
-43 -14 -81 -16 -60 -4 -72 -1 -90 17 -12 12 -21 27 -21 34 0 6 8 2 18 -10 35
-46 132 -38 132 11 0 22 -4 24 -61 28 -83 6 -89 16 -89 140 0 131 8 140 123
136 l82 -3 0 -162z m115 37 c0 -126 -1 -131 -22 -139 -23 -8 -23 -8 -26 110
-3 121 5 159 33 159 12 0 15 -23 15 -130z m249 113 c20 -17 22 -26 19 -132 -3
-108 -4 -114 -25 -122 l-23 -8 0 119 c0 116 -1 120 -24 136 -14 8 -35 14 -48
12 -22 -3 -23 -7 -28 -127 -5 -117 -6 -124 -27 -132 l-23 -8 0 139 0 140 79 0
c60 0 84 -4 100 -17z m272 -4 c11 -17 12 -49 1 -49 -4 0 -12 10 -17 22 -22 50
-125 44 -125 -7 0 -29 27 -49 87 -64 57 -16 73 -34 73 -85 0 -55 -16 -69 -88
-73 -76 -5 -106 11 -109 57 -1 34 -1 34 5 5 9 -39 50 -59 103 -50 30 5 40 12
45 31 10 39 -1 51 -70 74 -72 23 -86 39 -86 94 0 51 29 68 108 64 41 -3 67 -9
73 -19z m719 1 c11 -11 20 -33 20 -50 0 -26 -4 -30 -27 -30 -24 0 -28 4 -29
31 -1 16 -6 35 -12 41 -14 14 -63 13 -72 -2 -4 -6 -8 -56 -9 -111 -1 -96 0
-99 25 -115 37 -25 75 -9 91 36 l12 35 0 -31 c1 -41 -18 -56 -79 -62 -36 -3
-57 0 -75 12 -24 16 -25 20 -25 126 0 101 2 110 22 124 34 24 133 21 158 -4z
m241 10 c12 -7 19 -21 19 -38 l0 -27 -23 27 c-30 37 -75 46 -107 20 -21 -17
-23 -23 -13 -45 9 -20 26 -30 70 -43 32 -9 64 -21 71 -26 6 -6 12 -32 12 -59
0 -67 -26 -84 -112 -76 -68 6 -89 22 -87 66 1 23 2 23 10 -7 12 -41 48 -57
104 -45 34 7 40 12 43 36 5 38 -10 53 -66 67 -26 6 -57 21 -69 32 -37 35 -27
105 17 121 27 10 111 7 131 -3z m139 -112 c0 -127 -3 -140 -32 -151 -17 -6
-18 4 -18 121 0 128 6 152 37 152 10 0 13 -29 13 -122z m270 -42 c0 -194 -1
-196 -103 -196 -69 0 -97 13 -96 43 l0 22 9 -21 c10 -26 66 -39 104 -24 19 7
26 17 26 35 0 23 -3 25 -48 25 -27 0 -57 7 -70 16 -20 14 -22 23 -22 124 0
135 5 140 122 140 l78 0 0 -164z m256 140 c10 -14 14 -50 14 -122 0 -94 -2
-104 -22 -118 -12 -8 -25 -13 -30 -10 -4 3 -8 59 -8 125 0 119 0 120 -26 129
-62 24 -64 22 -64 -107 0 -65 -4 -123 -8 -130 -4 -6 -16 -13 -27 -15 -19 -3
-20 3 -23 121 -1 69 0 131 3 139 4 11 24 13 91 11 71 -3 88 -7 100 -23z m245
14 c12 -7 19 -21 19 -38 l0 -27 -23 27 c-39 46 -100 48 -116 5 -13 -35 3 -52
69 -72 69 -21 79 -30 87 -78 4 -29 1 -40 -20 -61 -27 -27 -69 -33 -137 -20
-33 7 -55 41 -47 73 3 9 8 2 12 -17 10 -42 44 -57 100 -45 34 7 40 12 43 36 5
39 -10 53 -69 67 -55 14 -89 47 -89 89 0 30 16 56 40 64 27 10 111 7 131 -3z
m-4367 -372 c-3 -35 -9 -66 -13 -69 -3 -4 -32 -14 -63 -23 -32 -9 -64 -19 -73
-22 -13 -5 -15 6 -15 74 l0 80 73 10 c39 5 78 10 85 11 10 1 11 -13 6 -61z
m-196 -120 l-3 -53 -59 -21 c-57 -20 -64 -27 -150 -137 -119 -152 -123 -154
-32 -17 76 114 76 115 76 181 l0 66 68 16 c107 24 104 25 100 -35z m3881 -185
c0 -49 -3 -82 -6 -75 -4 10 -8 10 -21 0 -14 -11 -14 -9 1 8 20 24 22 47 6 76
-8 15 -8 19 0 14 7 -5 11 5 11 28 0 20 2 36 5 36 3 0 5 -39 4 -87z m-3224 67
c22 -8 26 -15 23 -42 -3 -30 -7 -34 -45 -42 -37 -8 -42 -13 -46 -40 -2 -17 -5
6 -5 52 -2 81 -2 82 22 82 14 0 37 -4 51 -10z m945 0 c0 -5 -2 -10 -4 -10 -3
0 -8 5 -11 10 -3 6 -1 10 4 10 6 0 11 -4 11 -10z m1731 -11 l24 -21 -25 16
c-13 9 -32 16 -42 16 -29 0 -58 -37 -58 -73 0 -63 48 -92 93 -56 15 11 27 16
27 11 0 -18 -31 -35 -62 -35 -66 0 -95 100 -42 142 34 26 56 26 85 0z m729 11
c0 -5 -2 -10 -4 -10 -3 0 -8 5 -11 10 -3 6 -1 10 4 10 6 0 11 -4 11 -10z
m-1467 -31 c21 -2 21 -2 -1 -6 -22 -4 -23 -9 -20 -58 1 -29 0 -51 -4 -48 -5 2
-8 26 -8 54 0 32 -4 49 -12 50 -10 0 -10 2 0 6 6 2 13 12 13 21 1 15 2 15 6 0
2 -10 14 -19 26 -19z m1989 8 c-6 -7 -9 -23 -5 -35 7 -30 -13 -52 -48 -52 -19
0 -29 -5 -29 -15 0 -10 10 -15 33 -15 17 0 38 -4 45 -9 18 -11 12 -43 -8 -48
-12 -4 -13 -3 -1 5 24 17 5 42 -33 42 -39 0 -53 -14 -36 -35 9 -11 9 -15 1
-15 -16 0 -25 28 -14 43 5 6 8 32 7 57 -3 53 8 70 47 70 15 0 31 5 34 10 3 6
9 10 12 10 3 0 1 -6 -5 -13z m-3678 -13 c11 -4 16 -20 16 -53 0 -26 6 -53 13
-61 10 -12 9 -12 -4 -2 -9 7 -25 10 -35 6 -17 -5 -17 -4 -2 5 11 8 17 24 16
52 0 45 -18 60 -49 41 -27 -17 -38 -14 -15 3 21 16 36 18 60 9z m267 -11 c13
-16 12 -17 -3 -5 -22 18 -62 12 -66 -10 -2 -12 8 -20 38 -28 34 -9 41 -15 38
-32 -2 -12 -10 -23 -18 -25 -12 -4 -13 -3 -1 5 21 15 6 38 -28 45 -36 7 -49
30 -31 52 17 20 54 19 71 -2z m233 11 c9 -3 16 -11 16 -17 0 -7 -4 -7 -12 1
-16 16 -43 15 -58 -3 -10 -12 -5 -18 35 -35 35 -15 45 -24 41 -36 -3 -9 -6
-18 -6 -20 0 -2 -5 -4 -11 -4 -8 0 -8 4 0 14 14 16 -1 31 -41 41 -33 8 -42 29
-22 50 16 16 33 19 58 9z m448 -11 c28 -25 18 -103 -13 -103 -6 0 -3 7 5 16
19 18 21 65 4 82 -7 7 -21 12 -33 12 -12 0 -26 -5 -33 -12 -18 -18 -15 -75 6
-87 9 -6 12 -11 7 -11 -20 0 -35 24 -35 56 0 57 52 84 92 47z m200 3 c7 5 8 2
2 -7 -5 -8 -11 -34 -15 -59 -6 -42 -6 -40 -7 20 0 36 2 59 5 52 2 -6 10 -9 15
-6z m66 2 c7 -7 11 -34 10 -62 l-1 -51 -6 55 c-5 47 -9 55 -31 61 -21 6 -22 7
-4 8 11 1 25 -4 32 -11z m246 6 c11 -4 16 -19 16 -46 0 -22 5 -49 12 -61 10
-20 10 -21 -5 -9 -12 10 -21 11 -36 2 -25 -13 -61 2 -61 25 0 15 30 35 52 34
7 0 1 -5 -14 -11 -31 -11 -37 -32 -12 -42 31 -12 53 11 52 55 0 45 -18 60 -49
40 -11 -6 -19 -7 -19 -2 0 17 37 25 64 15z m493 -23 c16 -34 9 -41 -43 -41
-47 0 -54 -9 -28 -34 8 -9 12 -16 7 -16 -33 0 -45 76 -17 105 23 23 66 15 81
-14z m734 19 c28 -16 27 -84 -3 -104 -12 -9 -27 -16 -33 -16 -5 1 2 8 18 16
21 11 27 22 27 47 0 39 -15 57 -47 57 -40 0 -57 -58 -26 -92 9 -10 11 -18 5
-18 -6 0 -16 9 -22 19 -33 62 21 122 81 91z m234 3 c-33 -8 -45 -24 -45 -59 0
-21 6 -37 18 -43 9 -6 12 -11 7 -11 -20 0 -35 24 -35 56 0 38 22 64 53 63 20
-1 21 -2 2 -6z m232 -85 c-2 -18 -4 -4 -4 32 0 36 2 50 4 33 2 -18 2 -48 0
-65z m257 76 c11 -10 16 -32 15 -62 l-2 -47 -6 45 c-8 54 -17 70 -40 70 -28 0
-41 -21 -41 -67 0 -24 -4 -43 -10 -43 -5 0 -10 25 -10 56 0 30 4 53 8 50 4 -2
14 -1 22 5 22 13 47 11 64 -7z m-2717 -76 c-2 -18 -4 -6 -4 27 0 33 2 48 4 33
2 -15 2 -42 0 -60z m-729 20 c-32 -11 -35 -25 -10 -45 15 -13 15 -13 -5 -3
-13 6 -23 17 -23 25 0 16 28 35 50 34 8 0 3 -5 -12 -11z m512 -54 c0 -9 -44
14 -48 25 -3 8 5 7 22 -4 14 -10 26 -19 26 -21z m-265 8 c-3 -3 -11 0 -18 7
-9 10 -8 11 6 5 10 -3 15 -9 12 -12z m1740 8 c-3 -5 -12 -10 -18 -10 -7 0 -6
4 3 10 19 12 23 12 15 0z m-3218 -62 c-3 -8 -6 -5 -6 6 -1 11 2 17 5 13 3 -3
4 -12 1 -19z"/>
<path d="M4440 3770 l0 -170 50 0 c83 0 90 14 90 170 0 156 -7 170 -90 170
l-50 0 0 -170z"/>
<path d="M2385 3848 c-3 -8 -4 -66 -3 -129 3 -111 4 -114 26 -117 13 -2 34 4
48 12 23 16 24 22 24 114 0 53 -4 103 -8 110 -13 20 -80 28 -87 10z"/>
<path d="M2852 3748 c-14 -14 -16 -106 -3 -127 10 -16 58 -18 73 -3 6 6 13 40
15 76 l6 66 -40 0 c-21 0 -44 -5 -51 -12z"/>
<path d="M3132 3850 c-22 -9 -23 -13 -20 -121 3 -101 5 -112 23 -119 11 -4 30
-4 43 1 21 8 22 13 22 129 0 118 0 120 -22 119 -13 0 -33 -4 -46 -9z"/>
<path d="M3403 3850 c-22 -9 -23 -15 -23 -120 0 -106 1 -111 23 -119 24 -9 48
-4 59 13 4 6 8 62 8 124 0 110 0 112 -22 111 -13 0 -33 -4 -45 -9z"/>
<path d="M5410 3853 c-26 -10 -30 -26 -30 -123 0 -52 4 -100 8 -106 11 -17 35
-22 60 -13 21 8 22 13 22 129 0 118 0 120 -22 119 -13 0 -30 -3 -38 -6z"/>
<path d="M2060 3210 c0 -34 3 -40 21 -40 31 0 59 19 59 40 0 21 -28 40 -59 40
-18 0 -21 -6 -21 -40z"/>
<path d="M5974 3196 c-11 -28 4 -48 33 -44 22 2 28 8 28 28 0 20 -6 26 -28 28
-18 2 -29 -2 -33 -12z"/>
<path d="M4252 3198 c-24 -24 -13 -38 28 -38 33 0 40 4 40 19 0 29 -45 42 -68
19z"/>
</g>
</svg>
